<?xml version="1.0" encoding="utf-8"?>
<!-- Generator: Adobe Illustrator 23.1.1, SVG Export Plug-In . SVG Version: 6.00 Build 0)  -->
<svg version="1.1" id="Layer_1" xmlns="http://www.w3.org/2000/svg" xmlns:xlink="http://www.w3.org/1999/xlink" x="0px" y="0px"
	 viewBox="0 0 70.9 70.9" style="enable-background:new 0 0 70.9 70.9;" xml:space="preserve">
<style type="text/css">
	.st0{fill:#FFFFFF;}
	.st1{opacity:0.1;enable-background:new    ;}
	.st2{fill:#EB6484;}
	.st3{fill:#9CD2C6;}
	.st4{fill:#403D56;}
	.st5{fill:#F2AC55;}
	.st6{fill:#FADBA2;}
	.st7{fill:#DA0A37;}
	.st8{fill:#383F4D;}
</style>
<rect class="st0" width="70.9" height="70.9"/>
<g>
	<ellipse class="st1" cx="24.6" cy="50.6" rx="12.7" ry="2.1"/>
	<circle class="st2" cx="16.1" cy="20.1" r="9.1"/>
	<path class="st3" d="M41.1,34.6c0,11.9-7,16-15.7,16c-0.2,0-0.4,0-0.6,0c-0.4,0-0.8,0-1.2-0.1c-7.9-0.6-14-4.9-14-15.9
		c0-11.4,14.6-25.8,15.7-26.9c0,0,0,0,0,0c0,0,0.1-0.1,0.1-0.1S41,22.8,41.1,34.6z"/>
	<path class="st4" d="M24.7,48.8l5.8-8.1l-5.8,8.9l0,0.9c-0.4,0-0.8,0-1.2-0.1l0.6-11.9l0-0.1l0,0l0.1-1.1l-5.8-9l5.8,8.1l0,0.2
		l0.5-9l-5-9.3l5,7.7l0.5-18.6l0-0.1l0,0.1l-0.1,14.7l4.9-5.8l-5,7.1l-0.1,8l4.6-7.7L25,32.9l-0.1,4.5l6.7-10.7l-6.7,12.3L24.7,48.8
		z"/>
</g>
<path class="st5" d="M50.3,69.8"/>
<path class="st5" d="M47,69.6"/>
<path class="st5" d="M70.8,70.9l0.1-21.1l-15.8,0.1c-2,0-3.8-1.3-4.5-3.2c-0.2-0.5-0.3-1-0.3-1.5V32c0-1.4-1.1-2.5-2.5-2.5
	c0,0-0.1,0-0.1,0c-0.7,0-1.3,0.3-1.8,0.8c-0.5,0.5-0.7,1.2-0.7,1.8c0,0.7-0.6,1.3-1.3,1.3c0,0,0,0,0,0H36c-2.1,0-0.9,2.8-2.4,4.1
	c-3.6,3.1-6.2,1.8-6.2,4.4c0,0,0,0.1,0,0.1c1.5,3.9,4.4,7,8.7,8.4h0.7c0.6,0,1.1,0.2,1.5,0.6c0.3,0.3,0.5,0.7,0.6,1.1
	c0,0.2,0.1,0.3,0.1,0.5v8.3c0,1.6,2.7,8.4,3.5,9.8"/>
<path class="st6" d="M70.6,49.7c0.1-0.3-6,7.1-20-0.3"/>
<path class="st6" d="M50.3,31.6c0,0-4.7,6.2,0,13.8"/>
<path class="st6" d="M39.1,52.7c0,0,4.2,5.2,0.1,9.3"/>
<path class="st1" d="M38.7,51.6c0.3,0.3,0.2,0.6,0.3,1l13.5-3.5c-0.7-0.6-1.6-1.2-1.9-2.1C49,48.2,45.8,50.3,38.7,51.6z"/>
<path class="st7" d="M38.4,51.2c0.3,0.3,0.5,0.7,0.6,1.1l13.2-3.4c-0.7-0.6-1.3-1.3-1.6-2.2C49,47.9,45.4,49.9,38.4,51.2z"/>
<path class="st1" d="M50.1,47.3c0,0-4.1,3.1-11,4.1"/>
<path class="st5" d="M50.1,47c0,0-4.1,3.1-11,4.1"/>
<path class="st1" d="M39.8,47.3c0,0-6.9,2.2-8.7-4.7L39.8,47.3z"/>
<path class="st6" d="M39.8,46.9c0,0-6.9,2.2-8.7-4.7L39.8,46.9z"/>
<ellipse class="st8" cx="27.4" cy="41.3" rx="0.7" ry="1.3"/>
<ellipse class="st8" cx="38.8" cy="36.3" rx="1.1" ry="1.2"/>
<ellipse class="st0" cx="38.3" cy="36.6" rx="0.5" ry="0.6"/>
</svg>
