<?xml version="1.0" encoding="utf-8"?>
<!-- Generator: Adobe Illustrator 23.1.1, SVG Export Plug-In . SVG Version: 6.00 Build 0)  -->
<svg version="1.1" id="Layer_1" xmlns="http://www.w3.org/2000/svg" xmlns:xlink="http://www.w3.org/1999/xlink" x="0px" y="0px"
	 viewBox="0 0 70.9 70.9" style="enable-background:new 0 0 70.9 70.9;" xml:space="preserve">
<style type="text/css">
	.st0{fill:#FFFFFF;}
	.st1{fill:#F1F1F1;}
	.st2{fill:#403D56;}
	.st3{fill:#2F2F41;}
	.st4{fill:#9E616A;}
	.st5{fill:#575DA5;}
</style>
<rect class="st0" width="70.9" height="70.9"/>
<polyline class="st1" points="71,0 53.5,0.1 15.3,17.6 43,71 71,71 "/>
<rect x="11.4" y="46.4" transform="matrix(0.5 -0.866 0.866 0.5 -36.67 41.1951)" class="st1" width="11.9" height="11.9"/>
<path class="st2" d="M30.4,20.1c-1.5,0-2.7-1.2-2.7-2.7c0-1.5,1.2-2.7,2.7-2.7c1.5,0,2.7,1.2,2.7,2.7l0,0
	C33,18.9,31.8,20.1,30.4,20.1z M30.4,15c-1.3,0-2.4,1.1-2.4,2.4c0,1.3,1.1,2.4,2.4,2.4c1.3,0,2.4-1.1,2.4-2.4
	C32.8,16.1,31.7,15,30.4,15z"/>
<path class="st2" d="M19.8,62.6c-1.5,0-2.7-1.2-2.7-2.7c0-1.5,1.2-2.7,2.7-2.7c1.5,0,2.7,1.2,2.7,2.7l0,0
	C22.4,61.4,21.2,62.6,19.8,62.6z M19.8,57.5c-1.3,0-2.4,1.1-2.4,2.4c0,1.3,1.1,2.4,2.4,2.4c1.3,0,2.4-1.1,2.4-2.4
	C22.2,58.6,21.1,57.5,19.8,57.5z"/>
<ellipse transform="matrix(0.6651 -0.7468 0.7468 0.6651 1.2458 37.5738)" class="st3" cx="42.5" cy="17.4" rx="4.1" ry="2.5"/>
<circle class="st3" cx="50.4" cy="25.1" r="10.8"/>
<path class="st3" d="M18.7,20.3L8.7,21.1c-0.8,0.1-1.5,0.7-1.5,1.5l-0.4,5.2c-0.1,0.9,0.6,1.7,1.5,1.8c0,0,0.1,0,0.1,0H13v0.2h1.8
	v-0.2h1v0.2h1.8v-0.2h1c0.9,0,1.6-0.7,1.7-1.6l0.3-6c0-0.9-0.7-1.7-1.6-1.7C18.9,20.3,18.8,20.3,18.7,20.3z"/>
<path class="st4" d="M25.1,36.7L10.9,30l-2.6,4c0,0,7.4,4.7,7.8,5.1c0.5,0.5,6.4,4.4,8.8,3.8S26.1,37.3,25.1,36.7z"/>
<polyline class="st3" points="51.9,71.4 50.5,67.1 34.9,67.3 33,71.4 "/>
<path class="st4" d="M46.4,33.8c0,0,0.7,4,0,4.5c-0.7,0.5,4.9,6.4,4.9,6.4l2.3-2.1l0.7-4.7c0,0-2.2-3-1.2-5.7
	C54.1,29.5,46.4,33.8,46.4,33.8z"/>
<circle class="st4" cx="48.6" cy="27.2" r="7.8"/>
<path class="st5" d="M56,71.4c0,0,0-3.5,1.1-4.4c1.1-0.9,1-18.8,1-18.8l3.6-7.1c0,0-0.6-2.7-3.2-2.8s-4.8-1.5-4.8-1.5l-1.7,5h-1.3
	c0,0-3-4.6-4.7-5s-3.3-0.1-4.3,0c-1,0.1-4.3-1.1-6.2-0.2c-1.9,0.9,0,10.8,0,10.8s-2.2,12.8-1.2,16.1c1,3.3,0.2,3.9-0.2,4.3
	c-0.5,0.4,11.1,3.6,11.1,3.6"/>
<path class="st5" d="M36.6,37.3l-1.1-0.6c0,0-2.1,0.1-2.4,0c-0.4-0.1-5-1.6-6.8-0.7c-1.8,0.9-3-0.2-3-0.2s6,5.1-1.3,6.7
	c0,0,0.1,0.6,1.9,1c1.8,0.4,2.2,0.7,2.9,1.3s2.2,1.2,3.2,1.5c1,0.2,4.1,2.3,4.6,1.8c0.5-0.5,1.3-2.2,1.3-2.2L36.6,37.3z"/>
<path class="st5" d="M59.4,39.8l2.3,1.3c0,0,3,9,2.6,11.2c-0.5,2.2-1,1.8-0.2,3.3c0.7,1.5,1.5,1.6,1,2.9c-0.5,1.3-0.2,4.6-1,6
	c-0.7,1.3-4.3,5.6-7.3-1.6S59.4,39.8,59.4,39.8z"/>
<path class="st4" d="M59.1,37.4c-1.8-0.2-2.7,0.3-2.7,0.3s-3,5.4-2.1,7.3c0.5,1.1,1.1,2.1,1.8,3l2.1,15.1c0,0,4,4.9,5.6-4.7
	c0,0-1.7-3.4-2.1-3.6c-0.4-0.2-2.1-8.6-2.1-8.6s2.7-4.4,0.2-6.3c0,0,3.5,0.1,1.2-1.6"/>
<ellipse class="st5" cx="17.9" cy="22" rx="1.3" ry="0.6"/>
<path class="st4" d="M4.3,30c0-2.8,1.1-8.5,4.5-8.4c3.4,0.1,0.2,7.7,0.2,7.7l2.1,0.8l0,2.6L9.8,34H8.1C8.1,34,4.3,32.8,4.3,30"/>
<ellipse class="st3" cx="47.3" cy="22" rx="6.9" ry="3.5"/>
<ellipse class="st4" cx="56.7" cy="26.4" rx="0.6" ry="1.3"/>
<ellipse transform="matrix(0.8995 -0.4368 0.4368 0.8995 -2.3958 28.2691)" class="st3" cx="60.3" cy="19.3" rx="2.5" ry="4.1"/>
</svg>
