<?xml version="1.0" encoding="utf-8"?>
<!-- Generator: Adobe Illustrator 23.1.1, SVG Export Plug-In . SVG Version: 6.00 Build 0)  -->
<svg version="1.1" id="Layer_1" xmlns="http://www.w3.org/2000/svg" xmlns:xlink="http://www.w3.org/1999/xlink" x="0px" y="0px"
	 viewBox="0 0 70.9 70.9" style="enable-background:new 0 0 70.9 70.9;" xml:space="preserve">
<style type="text/css">
	.st0{fill:#FFFFFF;}
	.st1{fill:#8884A7;}
	.st2{fill:#FAFAFA;}
	.st3{fill:#EB634C;}
</style>
<rect class="st0" width="70.9" height="70.9"/>
<path class="st1" d="M63.5,27.3H32.6c-3,0-5.7,2.5-5.7,5.5V52c0,1.4,1.4,2.6,2.8,2.6c0,0,0,0,0,0h19.6c0.7,2.3,1.7,5.3,6.4,6.8
	l-0.8-7l8.6,0.2c1.4,0,2.6-1.2,2.6-2.6c0,0,0,0,0,0V29.9C66.1,28.4,64.9,27.3,63.5,27.3C63.5,27.3,63.5,27.3,63.5,27.3z"/>
<path class="st2" d="M65.2,30.4c0-1.4-1.1-2.5-2.5-2.5h-30c-2.9,0-5.2,2.4-5.2,5.3v18.4c0,1.4,1,1.8,2.4,1.8l19.5,0
	c0.6,2.2,1.7,5.8,5.7,7.2l-0.9-7.3l8.5,0.1c1.4,0,2.5-0.4,2.5-1.8"/>
<rect x="39.7" y="32.7" class="st1" width="15.5" height="1.9"/>
<rect x="49.3" y="36.3" class="st1" width="5.8" height="1.9"/>
<rect x="43.6" y="39.8" class="st1" width="11.4" height="1.9"/>
<rect x="40.9" y="43.4" class="st1" width="14" height="1.9"/>
<rect x="47.5" y="47" class="st1" width="7.4" height="1.9"/>
<path class="st1" d="M6.5,16h33.6c1.4,0,2.6,1.2,2.6,2.6v22.1c0,1.4-1.1,2.6-2.6,2.6L21,43.2c-0.4,1.7-1.7,5.4-7.1,6.8l1.2-6.7H6.5
	c-1.4,0-2.6-1.2-2.6-2.6V18.6C3.9,17.1,5.1,16,6.5,16z"/>
<path class="st0" d="M6.9,16.4h32.8c1.4,0,2.5,1.1,2.5,2.5v21.3c0,1.4-1.1,2.5-2.5,2.5l0,0h-19c-0.6,2.2-2.2,5.2-6.2,6.5l1.1-6.5
	H6.9c-1.4,0-2.5-1.1-2.5-2.5V18.9C4.4,17.6,5.5,16.4,6.9,16.4C6.9,16.4,6.9,16.4,6.9,16.4z"/>
<rect x="15.5" y="20.7" class="st3" width="15.5" height="1.9"/>
<rect x="15.6" y="24.3" class="st3" width="5.8" height="1.9"/>
<rect x="15.7" y="27.9" class="st3" width="11.4" height="1.9"/>
<rect x="15.8" y="31.4" class="st3" width="14" height="1.9"/>
<rect x="15.9" y="35" class="st3" width="7.4" height="1.9"/>
</svg>
