<?xml version="1.0" encoding="utf-8"?>
<!-- Generator: Adobe Illustrator 23.1.1, SVG Export Plug-In . SVG Version: 6.00 Build 0)  -->
<svg version="1.1" id="Layer_1" xmlns="http://www.w3.org/2000/svg" xmlns:xlink="http://www.w3.org/1999/xlink" x="0px" y="0px"
	 viewBox="0 0 70.9 70.9" style="enable-background:new 0 0 70.9 70.9;" xml:space="preserve">
<style type="text/css">
	.st0{fill:#FFFFFF;}
	.st1{clip-path:url(#SVGID_2_);}
	.st2{fill:#403D56;}
	.st3{fill:#EB634C;}
	.st4{fill:#D1C174;}
	.st5{fill:#F1F1F1;}
	.st6{fill:#F5B5B7;}
	.st7{fill:#8884A7;}
	.st8{fill:#2F2F41;}
</style>
<rect class="st0" width="70.9" height="70.9"/>
<g>
	<defs>
		<rect id="SVGID_1_" x="-0.3" y="0.6" width="70.7" height="70.7"/>
	</defs>
	<clipPath id="SVGID_2_">
		<use xlink:href="#SVGID_1_"  style="overflow:visible;"/>
	</clipPath>
	<g class="st1">
		<rect x="10.5" y="10.6" class="st2" width="50.1" height="50.1"/>
		<path class="st3" d="M34.6,14.2c0,8.8-7.2,16-16,16c-2.9,0-5.7-0.8-8.1-2.2V10.6h23.7C34.5,11.7,34.6,13,34.6,14.2z"/>
		<circle class="st4" cx="47.6" cy="24.1" r="9.7"/>
		<circle class="st4" cx="25.9" cy="44.6" r="6.9"/>
		<path class="st3" d="M60.5,52.4v8.2h-9.9c-1.2-3.7,0.8-7.6,4.5-8.7C56.9,51.3,58.9,51.5,60.5,52.4L60.5,52.4z"/>
		<circle class="st3" cx="43.3" cy="44.3" r="1.8"/>
		<circle class="st5" cx="37.4" cy="10.6" r="4.5"/>
		<circle class="st6" cx="32.7" cy="32.8" r="4.3"/>
		<path class="st6" d="M30.4,34.8c0,0,1.1,5.9,0.7,7c-0.5,1.1,6.4-0.5,6.4-0.5s-1.4-5.9-1.1-7.3C36.6,32.8,30.4,34.8,30.4,34.8z"/>
		<polygon class="st6" points="22.9,55.3 23.4,61.4 25.6,71 26.3,73.7 27.5,69.6 26.3,60.3 26,56.1 		"/>
		<path class="st6" d="M46.8,54.3v6.4c0,0-0.7,8.2-2,10.2c-1.4,2-1.8-8.2-1.8-8.2l1.1-7.5L46.8,54.3z"/>
		<path class="st7" d="M37.9,40.7c0,0-6.1-1.1-7.5,0c-1.4,1.1-7,3.4-7,4.5c0,1.1,3,12.3,3,12.3s-1.6,16.8,0,17.3
			c1.6,0.5,4.3-0.9,7.5,0.7c3.2,1.6,12.3-1.4,12.3-1.4s-3.4-14.5-2.5-17.3s1.6-12,1.6-12S41.3,40.7,37.9,40.7z"/>
		<path class="st7" d="M25,44.6L23.4,45c0,0-3.4,10.7-2,11.1c1.4,0.5,5.2,1.4,5.7,1.4S25,44.6,25,44.6z"/>
		<path class="st7" d="M41.6,43.4l3.6,1.4c0,0,4.8,8.9,3.6,10c-1.1,1.1-6.1,2.3-6.1,2.3L41.6,43.4z"/>
		<path class="st8" d="M32.6,27.4c-0.4-0.1-0.7,0-1.1,0c-0.3,0.1-0.5,0.3-0.8,0.5c-0.4,0.3-0.9,0.6-1.3,0.9c-0.4,0.2-0.8,0.4-1,0.7
			c-0.1,0.2-0.2,0.4-0.3,0.5c-0.4,1.1-0.6,2.4-0.3,3.6c0,0.2,0.1,0.3,0.2,0.5c0.2,0.4,0.8,0.6,1.2,0.8c0.8,0.4,1.5,1.2,2.2,1.8
			c0.3,0.3,0.5,0.5,0.8,0.7c1,0.5,2.2,0.4,3.3,0.2c0.3,0,0.6-0.3,0.6-0.6c0,0,0,0,0,0l0.9-3.9c0.2-0.6,0.2-1.2,0.2-1.8
			c-0.1-0.9-0.6-2.3-1.3-2.9C35,27.7,33.6,27.5,32.6,27.4z"/>
	</g>
</g>
</svg>
