<?xml version="1.0" encoding="utf-8"?>
<!-- Generator: Adobe Illustrator 23.1.1, SVG Export Plug-In . SVG Version: 6.00 Build 0)  -->
<svg version="1.1" id="Layer_1" xmlns="http://www.w3.org/2000/svg" xmlns:xlink="http://www.w3.org/1999/xlink" x="0px" y="0px"
	 viewBox="0 0 70.9 70.9" style="enable-background:new 0 0 70.9 70.9;" xml:space="preserve">
<style type="text/css">
	.st0{fill:#FFFFFF;}
	.st1{clip-path:url(#SVGID_2_);fill:#FDFDFC;}
	.st2{opacity:0.5;clip-path:url(#SVGID_2_);fill:#FFFFFF;enable-background:new    ;}
	.st3{opacity:0.5;clip-path:url(#SVGID_2_);fill:#EC6E8C;enable-background:new    ;}
	.st4{opacity:0.1;clip-path:url(#SVGID_2_);enable-background:new    ;}
	.st5{clip-path:url(#SVGID_2_);}
	.st6{fill:#F4F4F4;}
	.st7{fill:#5BB996;}
	.st8{fill:#545562;}
	.st9{opacity:0.2;fill:#F4F4F4;enable-background:new    ;}
	.st10{fill:url(#SVGID_3_);}
	.st11{fill:#795069;}
	.st12{fill:#F8DEEC;enable-background:new    ;}
	.st13{fill:#F2E9F4;enable-background:new    ;}
	.st14{opacity:0.1;enable-background:new    ;}
	.st15{fill:#4D4981;}
	.st16{opacity:0.5;fill:#FFFFFF;enable-background:new    ;}
	.st17{opacity:0.5;fill:#EC6E8C;enable-background:new    ;}
	.st18{opacity:0.5;}
	.st19{fill:none;}
</style>
<rect class="st0" width="70.9" height="70.9"/>
<g>
	<defs>
		<polyline id="SVGID_1_" points="70.7,70.7 0,70.7 0,0 70.7,0 		"/>
	</defs>
	<clipPath id="SVGID_2_">
		<use xlink:href="#SVGID_1_"  style="overflow:visible;"/>
	</clipPath>
	<path class="st1" d="M6.5,30.3c0,0-8.6,6.9-1.8,10.5c0,0,14.3-9.4,14.6-10.5C19.3,30.3,12.6,28,6.5,30.3z"/>
	<polygon class="st2" points="7.8,36.4 7,36.1 6.5,35.4 8.6,32.8 9.4,33.1 9.9,33.8 	"/>
	<polygon class="st2" points="20.9,28.1 20.3,28.8 19.5,29 17.8,26.2 18.3,25.5 19.2,25.3 	"/>
	<polygon class="st2" points="19.9,36.1 19.4,36.7 18.5,36.9 16.8,34.1 17.3,33.4 18.2,33.2 	"/>
	<polygon class="st3" points="10.1,27.8 9.3,27.5 8.8,26.8 10.9,24.2 11.7,24.5 12.2,25.2 	"/>
	<polygon class="st3" points="12.1,40.2 11.6,39.5 11.6,38.6 14.8,37.7 15.3,38.4 15.2,39.3 	"/>
	<path class="st4" d="M7.3,45L4,45.6c-0.1,0-0.3,0-0.4,0l-0.1,0l6.1,28.1L3.5,45.5l-3.3-1c-0.4-0.1-0.9,0.1-1.1,0.6
		c0,0.2-0.1,0.3,0,0.5L7,71.8c0.1,0.2,0.2,0.3,0.3,0.4c0.7,0.5,2.8,1.9,6.1,3.2L7.6,45C7.5,45,7.4,45,7.3,45z"/>
	<g class="st5">
		<ellipse class="st6" cx="40.2" cy="71.1" rx="48.1" ry="18.3"/>
		<path class="st7" d="M62,30.7c0,0-7.9,5.6-5.8,16.3c2.1,10.7-11.1,25.6-11.1,25.6s0.1,0,0.3,0c14.3-0.1,23.9-14.8,18.2-27.9
			C61.5,39.8,60,34.3,62,30.7z"/>
		<path class="st8" d="M45.1,72.8l0-0.4c4.7-0.4,8.1-4.3,10.1-7.4c3.9-6.1,5.7-14.7,4.1-19.2c-2.7-7.4,2.6-15.2,2.6-15.3l0.4,0.2
			c-0.1,0.1-5.1,7.6-2.6,14.9c1.7,4.7-0.1,13.3-4.1,19.5C53.5,68.5,50,72.4,45.1,72.8z"/>
		<path class="st7" d="M69.4,60.1c0,0-7.5-2.6-9.4,4.2c-1.9,6.8-16.2,5.3-16.2,5.3s0.1,0.1,0.2,0.2c10.4,9.7,22,8.8,22.1-1.7
			C66.1,64.4,66.8,60.6,69.4,60.1z"/>
		<path class="st9" d="M69.4,60.1c0,0-7.5-2.6-9.4,4.2c-1.9,6.8-16.2,5.3-16.2,5.3s0.1,0.1,0.2,0.2c10.4,9.7,22,8.8,22.1-1.7
			C66.1,64.4,66.8,60.6,69.4,60.1z"/>
		<path class="st8" d="M52.4,73.2c-3.1,0-6.2-1.1-8.8-3.3l0.3-0.3c3.9,3.3,8.9,4.1,13.4,2.2c3-1.2,5-3.5,5.2-5.8
			c0.5-5.7,6.8-6,6.9-6l0,0.4c-0.2,0-6,0.3-6.5,5.6c-0.2,2.4-2.3,4.9-5.5,6.2C55.8,72.8,54.1,73.2,52.4,73.2z"/>
		
			<linearGradient id="SVGID_3_" gradientUnits="userSpaceOnUse" x1="185.9041" y1="-66.9123" x2="185.9041" y2="5.0216" gradientTransform="matrix(1 0 0 -1 -158.33 12.7602)">
			<stop  offset="0" style="stop-color:#808080;stop-opacity:0.25"/>
			<stop  offset="0.54" style="stop-color:#808080;stop-opacity:0.12"/>
			<stop  offset="1" style="stop-color:#808080;stop-opacity:0.1"/>
		</linearGradient>
		<path class="st10" d="M56.5,44.6c0.4-2.2,0.3-5.5-3.3-7.1c2-3.2,1-5.4-0.7-6.2c0-0.8-0.2-2.5-1.7-3.4c0.2-1.6,0.5-7.7-6.5-8.4
			c-0.8-1.4-3.4-5.2-7.5-6.3V7.7c-1,2.1-7.3,3.3-7.3,3.3c-7.2,1-8.9,5.1-9.2,6.9c-0.9,0-1.8,0.1-2.2,0.4
			c-1.5,0.9-12.4,3.8-11.5,11.3c-0.1,0.1-0.3,0.1-0.4,0.1c0,0-5.9,4.7-4.3,8.5l-0.6,0c0,0-3.4,2.1-2.4,6.3c-0.3,0.3-0.4,0.7-0.3,1.1
			l8.2,27.3c0.1,0.2,0.2,0.4,0.3,0.5c0.4,0.3,1.1,0.8,2.3,1.4l0,0l0,0c1.3,0.7,2.6,1.3,3.9,1.9v0l0,0c0.9,0.4,2,0.8,3.1,1.1v0h0
			c1,0.3,2.1,0.6,3.3,0.9v0h0c1.1,0.2,2.3,0.4,3.5,0.6l0,0h0c1.5,0.2,3,0.2,4.5,0.2l0,0h0.1l0,0c1.4,0,2.8-0.1,4.2-0.3h0v0
			c1.1-0.1,2.3-0.3,3.5-0.6l0,0.1l0.1,0l0-0.1c1.2-0.3,2.4-0.6,3.6-1h0v0c1-0.3,2-0.7,3.1-1.2l0,0v0c1.2-0.5,2.4-1.1,3.7-1.8l0,0
			l0,0c0.7-0.4,1.4-0.8,2.1-1.2c0.2-0.1,0.3-0.3,0.4-0.5l8.1-27.3C56.9,45.4,56.7,44.9,56.5,44.6L56.5,44.6z"/>
		<path class="st11" d="M1.8,38.6c0,0-4.6,2.8-1.4,8.3s54,0,54,0s3.3-6.8-2.6-9.2S1.8,38.6,1.8,38.6z"/>
		<path class="st12" d="M51.3,32c0-0.8-0.2-2.4-1.6-3.3c0.2-1.5,0.5-7.4-6.2-8.1c-0.8-1.4-3.9-6.2-7.3-6.1V9.2c-1,2-7.1,3.2-7.1,3.2
			c-7,1-8.5,4.9-8.9,6.6c-0.9,0-1.7,0.1-2.1,0.4C16.6,20.4,6.2,23.1,7,30.4c-0.1,0-1.2,0.5-1.7,1.5c0,0-5.9,4.3-0.9,8.9l0,0
			c0,0,2.7,5.3,10.8,1.2l0,0c3,0.9,11.1,2.7,15.9-1l0.3-0.3c1.9,1.1,6.4,3.2,10.3,0.3l0,0c1.5,1.4,4.5,3.2,8.2-0.5
			C54.3,36.1,53.4,33,51.3,32z"/>
		<path class="st7" d="M40.7,39.6c0,0,4,5.9,9.2,0.7s3-8.7,0-8.8C46.9,31.4,40.7,39.6,40.7,39.6z"/>
		<path class="st12" d="M40.7,39.6c0,0,4,5.9,9.2,0.7s3-8.7,0-8.8C46.9,31.4,40.7,39.6,40.7,39.6z"/>
		<path class="st7" d="M51.2,32.3c0,0,1-8.2-11.5-1.9s-9.3,9.6-9.3,9.6s6.2,4.7,11.2,0.9S49.8,35.8,51.2,32.3z"/>
		<path class="st13" d="M51.2,32.3c0,0,1-8.2-11.5-1.9s-9.3,9.6-9.3,9.6s6.2,4.7,11.2,0.9S49.8,35.8,51.2,32.3z"/>
		<path class="st7" d="M41.6,29.8c0,0-4.7-3.3-12,0S13.9,41.4,13.9,41.4s11.1,4,17.1-0.6S41.3,32.9,41.6,29.8z"/>
		<path class="st12" d="M41.6,29.8c0,0-4.7-3.3-12,0S13.9,41.4,13.9,41.4s11.1,4,17.1-0.6S41.3,32.9,41.6,29.8z"/>
		<path class="st7" d="M31.9,29.3c0,0-9.7-1.4-14.1,1.4c-4.5,2.7-13.5,9.9-13.5,9.9S7,45.8,15,41.8C15,41.8,31.7,31.4,31.9,29.3z"/>
		<path class="st12" d="M31.9,29.3c0,0-9.7-1.4-14.1,1.4c-4.5,2.7-13.5,9.9-13.5,9.9S7,45.8,15,41.8C15,41.8,31.7,31.4,31.9,29.3z"
			/>
		<path class="st7" d="M25.3,19.3c0,0-5.7-1-7.3,0c-1.5,1-13.2,4-10.8,12.2l3.5-1.3C10.7,30.2,17.3,21.8,25.3,19.3z"/>
		<path class="st13" d="M25.3,19.3c0,0-5.7-1-7.3,0c-1.5,1-13.2,4-10.8,12.2l3.5-1.3C10.7,30.2,17.3,21.8,25.3,19.3z"/>
		<path class="st7" d="M34.8,20.6c0,0-4.1-3.8-13.1-0.3S9.7,30,9.7,30l13.5,1C23.2,31.1,30.8,20.2,34.8,20.6z"/>
		<path class="st12" d="M34.8,20.6c0,0-4.1-3.8-13.1-0.3S9.7,30,9.7,30l13.5,1C23.2,31.1,30.8,20.2,34.8,20.6z"/>
		<path class="st7" d="M41.1,21c0,0-6.5-2.1-11.5,0.8s-6.9,8.6-6.9,8.6l8-0.4C30.7,30,37,20.2,41.1,21z"/>
		<path class="st13" d="M41.1,21c0,0-6.5-2.1-11.5,0.8s-6.9,8.6-6.9,8.6l8-0.4C30.7,30,37,20.2,41.1,21z"/>
		<path class="st12" d="M49.6,28.9c0,0,2.2-11.3-12.5-7.8c0,0-8.4,7.4-6,9.4S49.6,28.9,49.6,28.9z"/>
		<path class="st14" d="M-0.8,45.6L7,71.8c0.1,0.2,0.2,0.3,0.3,0.4c2.2,1.5,19.1,12.5,39.8,0c0.2-0.1,0.3-0.3,0.4-0.5l7.9-26.3
			c0.1-0.4-0.1-0.9-0.6-1.1c-0.1,0-0.3,0-0.4,0L51,45.3c-0.1,0-0.2,0-0.4,0l-3.2-0.6c-0.2,0-0.4,0-0.6,0.1l-3.8,2
			c-0.2,0.1-0.4,0.1-0.6,0.1l-4.1-1c-0.2,0-0.3,0-0.5,0l-4.8,1.6c-0.2,0.1-0.4,0.1-0.7-0.1l-3.1-1.6c-0.2-0.1-0.4-0.1-0.6-0.1
			L24.7,47c-0.1,0-0.2,0-0.3,0l-3.9-0.3c-0.1,0-0.1,0-0.2,0l-3.1-0.9c-0.1,0-0.3,0-0.4,0l-4.3,0.9c-0.2,0-0.3,0-0.5,0L7.8,45
			C7.6,45,7.5,45,7.3,45L4,45.6c-0.1,0-0.3,0-0.4,0l-3.4-1.1c-0.4-0.1-0.9,0.1-1.1,0.6C-0.9,45.2-0.9,45.4-0.8,45.6z"/>
		<path class="st15" d="M-0.8,45.8L7,72c0.1,0.2,0.2,0.3,0.3,0.4c2.2,1.5,19.1,12.5,39.8,0c0.2-0.1,0.3-0.3,0.4-0.5l7.9-26.3
			c0.1-0.4-0.1-0.9-0.6-1.1c-0.1,0-0.3,0-0.4,0L51,45.5c-0.1,0-0.2,0-0.4,0l-3.2-0.6c-0.2,0-0.4,0-0.6,0.1l-3.8,2
			c-0.2,0.1-0.4,0.1-0.6,0.1l-4.1-1c-0.2,0-0.3,0-0.5,0l-4.8,1.6c-0.2,0.1-0.4,0.1-0.7-0.1L29.4,46c-0.2-0.1-0.4-0.1-0.6-0.1
			l-4.1,1.3c-0.1,0-0.2,0-0.3,0L20.4,47c-0.1,0-0.1,0-0.2,0l-3.1-0.9c-0.1,0-0.3,0-0.4,0l-4.3,0.9c-0.2,0-0.3,0-0.5,0l-4.2-1.7
			c-0.1-0.1-0.3-0.1-0.5,0L4,45.8c-0.1,0-0.3,0-0.4,0l-3.4-1.1c-0.4-0.1-0.9,0.1-1.1,0.6C-0.9,45.4-0.9,45.6-0.8,45.8z"/>
		<polygon class="st16" points="46.8,40.7 46,40.5 45.5,39.7 47.6,37.2 48.4,37.4 48.9,38.2 		"/>
		<polygon class="st16" points="29.7,26.7 28.9,26.4 28.4,25.7 30.5,23.1 31.3,23.4 31.7,24.1 		"/>
		<polygon class="st16" points="34.3,36.2 33.5,36.5 32.7,36.3 32.4,33 33.2,32.7 34,32.9 		"/>
		<polygon class="st16" points="43.6,36.8 43,37.4 42.1,37.5 40.7,34.5 41.4,33.9 42.2,33.8 		"/>
		<polygon class="st16" points="39.3,26.5 39.5,25.7 40.2,25.2 42.9,27 42.7,27.8 42,28.4 		"/>
		<polygon class="st17" points="20.5,22.9 20.3,22.1 20.7,21.3 24,21.7 24.2,22.5 23.8,23.3 		"/>
		<polygon class="st17" points="36.4,18.1 36.5,17.3 37.2,16.7 40,18.4 39.9,19.2 39.2,19.8 		"/>
		<polygon class="st17" points="30,13.8 30.9,13.6 31.7,14 31.3,17.3 30.4,17.4 29.6,17.1 		"/>
		<polygon class="st17" points="24.2,39.6 24,38.7 24.4,38 27.6,38.3 27.8,39.2 27.5,39.9 		"/>
		<polygon class="st17" points="46,34.4 45.2,33.9 45,33 47.7,31.1 48.4,31.6 48.6,32.5 		"/>
		<polygon class="st17" points="23.3,35.1 22.6,34.6 22.3,33.7 25,31.8 25.7,32.3 26,33.1 		"/>
		<path class="st14" d="M54.4,44.4L51,45.3c-0.1,0-0.2,0-0.4,0l-3.2-0.6c-0.1,0-0.2,0-0.3,0l-5.6,30.5l5.6-30.5
			c-0.1,0-0.2,0-0.3,0.1l-3.8,2c-0.2,0.1-0.4,0.1-0.6,0.1l-4,29.4c2.3-0.8,4.5-1.7,6.6-2.8l6.1-28.2l-6.1,28.2
			c0.7-0.4,1.4-0.8,2.1-1.2c0.2-0.1,0.3-0.3,0.4-0.5l7.9-26.3c0.1-0.5-0.1-0.9-0.6-1C54.7,44.4,54.6,44.4,54.4,44.4z"/>
		<path class="st15" d="M42.5,46.9l-4.1-1c-0.1,0-0.2,0-0.2,0L35,77.3c1.1-0.3,2.3-0.6,3.5-1L42.5,46.9L42.5,46.9z"/>
		<g class="st18">
			<rect x="6.5" y="45.4" transform="matrix(0.9775 -0.211 0.211 0.9775 -12.4666 2.7319)" class="st0" width="0.1" height="28.7"/>
			
				<rect x="14.3" y="46.8" transform="matrix(0.9898 -0.1425 0.1425 0.9898 -8.6663 2.6762)" class="st0" width="0.1" height="30.1"/>
			
				<rect x="10.5" y="44.9" transform="matrix(0.982 -0.1891 0.1891 0.982 -11.2346 3.0752)" class="st0" width="0.1" height="31.1"/>
			
				<rect x="18.3" y="46" transform="matrix(0.9961 -8.802506e-02 8.802506e-02 0.9961 -5.3691 1.855)" class="st0" width="0.1" height="31.7"/>
			
				<rect x="22.6" y="47.1" transform="matrix(0.9996 -2.931733e-02 2.931733e-02 0.9996 -1.8265 0.6918)" class="st0" width="0.1" height="31"/>
			
				<rect x="27.3" y="46.4" transform="matrix(1 -6.457673e-03 6.457673e-03 1 -0.4022 0.1782)" class="st0" width="0.1" height="32"/>
			
				<rect x="17" y="62.9" transform="matrix(4.100371e-02 -0.9992 0.9992 4.100371e-02 -31.9726 92.5236)" class="st0" width="30.3" height="0.1"/>
			
				<rect x="20.7" y="61.8" transform="matrix(9.966710e-02 -0.995 0.995 9.966710e-02 -28.5644 92.0348)" class="st0" width="31.7" height="0.1"/>
			
				<rect x="25" y="61.2" transform="matrix(0.1302 -0.9915 0.9915 0.1302 -25.992 92.9194)" class="st0" width="29.9" height="0.1"/>
			<rect x="28.8" y="60" transform="matrix(0.1814 -0.9834 0.9834 0.1814 -22.8029 92.7993)" class="st0" width="31" height="0.1"/>
			
				<rect x="33.7" y="59.5" transform="matrix(0.2112 -0.9775 0.9775 0.2112 -20.1932 94.0637)" class="st0" width="28.9" height="0.1"/>
		</g>
	</g>
</g>
<polyline class="st19" points="70.7,70.7 0,70.7 0,0 "/>
</svg>
