<?xml version="1.0" encoding="utf-8"?>
<!-- Generator: Adobe Illustrator 23.1.1, SVG Export Plug-In . SVG Version: 6.00 Build 0)  -->
<svg version="1.1" id="Layer_1" xmlns="http://www.w3.org/2000/svg" xmlns:xlink="http://www.w3.org/1999/xlink" x="0px" y="0px"
	 viewBox="0 0 70.9 70.9" style="enable-background:new 0 0 70.9 70.9;" xml:space="preserve">
<style type="text/css">
	.st0{fill:#FFFFFF;}
	.st1{clip-path:url(#SVGID_2_);}
	.st2{fill:#5BB996;}
	.st3{fill:#EFEFEF;}
	.st4{fill:#403D56;}
	.st5{opacity:0.1;enable-background:new    ;}
	.st6{fill:#F1F1F1;}
	.st7{fill:#2F2F41;}
	.st8{fill:#F5B6B8;}
	.st9{fill:#CECCDF;}
</style>
<rect class="st0" width="70.9" height="70.9"/>
<g>
	<defs>
		<rect id="SVGID_1_" width="70.7" height="70.7"/>
	</defs>
	<clipPath id="SVGID_2_">
		<use xlink:href="#SVGID_1_"  style="overflow:visible;"/>
	</clipPath>
	<g class="st1">
		<rect x="-29.3" y="33.1" class="st2" width="89.3" height="42.4"/>
		<rect x="-14.5" y="50.2" class="st3" width="59.8" height="25.2"/>
		<rect x="-14.5" y="51.8" class="st4" width="59.8" height="0.2"/>
		<rect x="-10.5" y="57.7" class="st4" width="23.3" height="14.8"/>
		<polygon class="st5" points="21.1,33.1 -29.3,67.7 -29.3,59.4 9,33.1 		"/>
		<path class="st4" d="M37.7,44.1h-2.4v-2.4h2.4V44.1z M35.5,43.9h2v-2h-2V43.9z"/>
		<rect x="38.8" y="5.8" class="st6" width="9.4" height="11"/>
		<path class="st4" d="M45,33.2l-0.1-0.1c0.6-0.7,1.1-1.5,1.3-2.3c0.4-1.3,0.7-3.5-0.8-5.9c-1.5-2.5-1.6-4.6-1.4-5.9
			c0.2-1.4,0.8-2.2,0.8-2.2l0.1,0.1c0,0-0.6,0.8-0.8,2.1c-0.2,1.2-0.1,3.2,1.4,5.7c1.5,2.5,1.3,4.7,0.8,6.1
			C45.9,32.3,45,33.2,45,33.2z"/>
		<path class="st4" d="M51.9,16.9H38.7V3.7h13.2V16.9z M38.9,16.7h12.8V3.9H38.9V16.7z"/>
		<rect x="41.4" y="7.6" class="st4" width="8.1" height="0.2"/>
		<rect x="41.4" y="9.6" class="st4" width="8.1" height="0.2"/>
		<rect x="41.4" y="11.6" class="st4" width="8.1" height="0.2"/>
		<rect x="53.5" y="13.8" class="st6" width="9.4" height="11"/>
		<path class="st4" d="M59.7,41.2L59.6,41c0.6-0.7,1.1-1.5,1.3-2.3c0.4-1.3,0.7-3.5-0.8-5.9c-1.5-2.5-1.6-4.6-1.4-5.9
			c0.2-1.4,0.8-2.2,0.8-2.2l0.1,0.1c0,0-0.6,0.8-0.8,2.1c-0.2,1.2-0.1,3.2,1.4,5.7c1.5,2.5,1.3,4.7,0.8,6.1
			C60.6,40.2,59.8,41.1,59.7,41.2z"/>
		<path class="st4" d="M66.6,24.8H53.4V11.7h13.2V24.8z M53.6,24.7h12.8V11.9H53.6V24.7z"/>
		<rect x="56.2" y="15.5" class="st4" width="8.1" height="0.2"/>
		<rect x="56.2" y="17.5" class="st4" width="8.1" height="0.2"/>
		<rect x="56.2" y="19.5" class="st4" width="8.1" height="0.2"/>
		<polygon class="st3" points="13.7,37 14.3,38.3 15.7,38.5 14.7,39.5 14.9,40.9 13.7,40.3 12.4,40.9 12.6,39.5 11.6,38.5 13,38.3 
					"/>
		<path class="st7" d="M16,8L16,8c2.2,0,4,2,4,4.4v3.1h-1l-0.6-1.1l0.1,1.1h-6.1l-0.5-1l0.1,1h-0.7V13C11.4,10.2,13.4,8,16,8z"/>
		<path class="st7" d="M20.5,28.2l2.4,1l8.5,6.9c0.3,0.4,0.5,0.9,0.6,1.3c0.1,0.8,2.6,5,1.7,5.5c-0.9,0.6-4.2,2.2-4.4,1.1
			c-0.2-1.1-1.2-5.8-1.2-5.8L20,31L20.5,28.2z"/>
		<path class="st7" d="M30.1,43.2l1,3.1c0,0-1.1,1.2-0.6,2.1v3.4h0.9l0.2-1.8c0,0,1,1.7,1.5,1.8c1,0,3.1,0.4,3.1-0.1
			c0.1-0.6-1.5-1.1-1.5-1.1L33,45.8l-0.7-2.9L30.1,43.2z"/>
		<path class="st7" d="M14.2,27.4c0,0-0.6,5.4,1,6.4s8.6,4.1,8.6,4.1s-3,2.8-2.4,3.5c0.6,0.7,3.4,2.5,3.7,2.1c0.4-0.4,4.5-4.8,4-6.2
			c-0.5-1.4-7.3-6-7.3-6l-0.8-2.9l-0.2-2.3l-2.6-1.7L14.2,27.4z"/>
		<circle class="st8" cx="17" cy="12.3" r="2.5"/>
		<path class="st8" d="M15,13.4c0,0,0.1,2.3-1.8,3.1c-1.9,0.7,4.7,5.5,4.7,5.5v-5.3c0,0-0.9-0.9,0-2.3L15,13.4z"/>
		<path class="st8" d="M10.9,24.3l0.5,2.4l1.5,8.2c0,0-1.2,3.5,0.4,3.4s0.9-3.8,0.9-3.8l-0.9-6.8v-2.6L10.9,24.3z"/>
		<path class="st8" d="M21.4,23.1l0.6,2.1l2.5,6.1c0,0,1.7,2.9,0.3,2.8c-1.4-0.1-1.4-2.8-1.4-2.8l-2.9-4.9v-2.8L21.4,23.1z"/>
		<path class="st7" d="M21.9,41l-2,1.9c0,0-1.4-0.3-2,1.3S17,46.9,17,46.9l0.7,0.4l0.9-1.3c0,0,0.6,2.3,1.1,2.5
			c0.6,0.2,3.3,1.4,3.1,0l-1.3-2c0,0-0.2-2.2,0.4-2.4c0.6-0.2,2-2,2-2L21.9,41z"/>
		<path class="st4" d="M14.1,29.3c0,0,5.7-2.1,6.1-1.9c0.3,0.1,0.6,0.2,0.9,0.2l0-0.8c0,0-1.9-0.7-2.9-0.2c-1,0.4-4.2,2.3-4.2,2.3
			L14.1,29.3z"/>
		<path class="st9" d="M17.6,20.7c0,0-1.7-1.9-2.1-3.1c-0.3-0.7-0.9-1.3-1.6-1.6c0,0-3.7,0.8-3.6,2.3c0.1,1.5,2.3,3.7,2.3,3.7
			s-0.3,8.1,1.3,8c0.4-0.4,0.6-0.9,0.7-1.5c0.2-0.9,5.9-1.8,5.9-1.8s0.5,0.9,0.6,0.5S20.5,18,20.5,18l-2.9-1.9L17.6,20.7z"/>
		<path class="st9" d="M10.7,17.8L10.7,17.8c-0.3,0.2-0.5,0.5-0.5,0.8l0,4.5c0,0.2-0.1,0.5-0.3,0.6c-0.2,0.2-0.5,0.5,0,0.6
			c0.7,0.2,3.6,1.5,3.7,1c0.1-0.4,0.2-0.9,0-0.9c-0.1,0-1-4.4-1.7-6.3c-0.2-0.4-0.6-0.7-1.1-0.5C10.8,17.8,10.7,17.8,10.7,17.8z"/>
		<path class="st9" d="M19.7,17.8l0.9,0.2l1,4.2c0,0,1.2,0.2,0.8,0.7c-0.4,0.4-1.9,1.5-1.9,1.5L19.7,17.8z"/>
		<path class="st7" d="M14.8,9.2c0.4-0.5,1-0.8,1.6-0.8h0.1c1.5,0,2.7,1.4,2.7,3v0h-0.5l-0.1-0.6l-0.1,0.6h-3l-0.3-0.5l0.1,0.5h-0.6
			c-0.3,1.4,0.1,2.7,1.2,4.1h-1l-0.5-1.1l0.1,1.1h-1.9l-0.4-2.4C12.3,11.2,13.4,9.7,14.8,9.2z"/>
	</g>
</g>
</svg>
