<?xml version="1.0" encoding="utf-8"?>
<!-- Generator: Adobe Illustrator 23.1.1, SVG Export Plug-In . SVG Version: 6.00 Build 0)  -->
<svg version="1.1" id="Layer_1" xmlns="http://www.w3.org/2000/svg" xmlns:xlink="http://www.w3.org/1999/xlink" x="0px" y="0px"
	 viewBox="0 0 70.9 70.9" style="enable-background:new 0 0 70.9 70.9;" xml:space="preserve">
<style type="text/css">
	.st0{fill:#FFFFFF;}
	.st1{clip-path:url(#SVGID_2_);}
	.st2{fill:#5BB996;}
	.st3{fill:#403D56;}
	.st4{opacity:0.1;enable-background:new    ;}
	.st5{fill:#575DA5;}
	.st6{fill:#CECBDF;}
	.st7{fill:#F1F1F1;}
	.st8{fill:#2F2F41;}
	.st9{fill:#F5B6B8;}
	.st10{fill:#47677C;}
	.st11{fill:none;}
</style>
<rect class="st0" width="70.9" height="70.9"/>
<g>
	<defs>
		<rect id="SVGID_1_" width="70.7" height="70.7"/>
	</defs>
	<clipPath id="SVGID_2_">
		<use xlink:href="#SVGID_1_"  style="overflow:visible;"/>
	</clipPath>
	<g class="st1">
		<ellipse class="st2" cx="35.3" cy="69.8" rx="33.6" ry="4"/>
		<path class="st3" d="M68.9,69.8c0,2.2-15,7.3-33.6,7.3S1.8,72,1.8,69.8c0-2.2,15-0.8,33.6-0.8S68.9,67.6,68.9,69.8z"/>
		<path class="st4" d="M68.9,69.8c0,2.2-15,7.3-33.6,7.3S1.8,72,1.8,69.8c0-2.2,15-0.8,33.6-0.8S68.9,67.6,68.9,69.8z"/>
		<circle class="st5" cx="11.3" cy="38.8" r="1.4"/>
		<circle class="st5" cx="17.5" cy="50.5" r="1.4"/>
		<circle class="st5" cx="12.7" cy="47.5" r="1.4"/>
		<path class="st6" d="M13.2,67.6c0,0-0.6-1-0.8-3.1c-0.2-1.9-0.1-5,1.6-9.4C17,46.8,13.2,40,13.2,40l0.2-0.1c0,0,1,1.7,1.6,4.5
			c0.8,3.6,0.5,7.4-0.8,10.8c-3.1,8.3-0.8,12.3-0.8,12.3L13.2,67.6z"/>
		<path class="st6" d="M12,39.6c-0.8,0-1.5-0.7-1.5-1.5c0-0.8,0.7-1.5,1.5-1.5c0.8,0,1.5,0.7,1.5,1.5l0,0
			C13.5,38.9,12.8,39.6,12,39.6z M12,36.8c-0.7,0-1.3,0.6-1.3,1.3c0,0.7,0.6,1.3,1.3,1.3s1.3-0.6,1.3-1.3
			C13.3,37.4,12.7,36.8,12,36.8z"/>
		<circle class="st6" cx="16.4" cy="43.3" r="1.4"/>
		<path class="st6" d="M13.4,48.3c-0.8,0-1.5-0.7-1.5-1.5c0-0.8,0.7-1.5,1.5-1.5c0.8,0,1.5,0.7,1.5,1.5
			C14.9,47.6,14.2,48.3,13.4,48.3z M13.4,45.5c-0.7,0-1.3,0.6-1.3,1.3c0,0.7,0.6,1.3,1.3,1.3c0.7,0,1.3-0.6,1.3-1.3
			C14.7,46,14.1,45.5,13.4,45.5L13.4,45.5z"/>
		<path class="st6" d="M17.1,51.2c-0.8,0-1.5-0.7-1.5-1.5c0-0.8,0.7-1.5,1.5-1.5c0.8,0,1.5,0.7,1.5,1.5v0
			C18.6,50.5,17.9,51.2,17.1,51.2z M17.1,48.4c-0.7,0-1.3,0.6-1.3,1.3c0,0.7,0.6,1.3,1.3,1.3c0.7,0,1.3-0.6,1.3-1.3
			C18.4,49,17.8,48.4,17.1,48.4z"/>
		<circle class="st6" cx="12.3" cy="54.3" r="1.4"/>
		<path class="st6" d="M14,67.6c0,0-1.4-3.5,2.8-6.1L14,67.6z"/>
		<path class="st6" d="M12.3,67.6c0,0-0.6-3.7-5.6-3.7L12.3,67.6z"/>
		<path class="st5" d="M63.3,68.9h-24c0,0-0.5-7.1,2.4-7.2c2.9-0.1,2.6,3.2,6.2-1.3s8-4.2,8.6-1.6c0.6,2.6-1.1,4.8,1.9,4.1
			C61.4,62.3,65.8,64,63.3,68.9z"/>
		<path class="st7" d="M50.9,68.9L50.9,68.9c0.1-4.7,1.1-7.7,1.9-9.4c0.9-1.9,1.7-2.6,1.7-2.6l0.1,0.1c0,0-0.8,0.8-1.7,2.6
			C52,61.2,51,64.2,50.9,68.9z"/>
		<path class="st7" d="M59.6,68.9L59.6,68.9c0.9-3.2,3.1-5.3,3.1-5.3l0.1,0.1C62.7,63.7,60.5,65.7,59.6,68.9z"/>
		<path class="st7" d="M43,68.9L43,68.9c0.2-2.3-0.3-4.1-0.9-5.2c-0.6-1.2-1.2-1.8-1.3-1.8l0.1-0.1c0,0,0.7,0.7,1.3,1.9
			C42.8,64.8,43.4,66.6,43,68.9z"/>
		<path class="st6" d="M66.5,69H36.7l0-0.1c0-0.3-0.4-6.2,1.5-8.3c0.4-0.5,0.9-0.7,1.5-0.7c1.3,0,2,0.4,2.7,0.8
			c1.2,0.7,2,1.2,4.9-2.4c3.1-3.9,6.5-4.7,8.4-4.2c1.3,0.3,2.1,1.1,2.4,2.3c0.2,1.1,0.2,2.2,0.1,3c-0.1,0.9-0.1,1.6,0.3,1.9
			c0.3,0.3,0.9,0.3,1.9,0.1c2.1-0.4,4.9-0.1,6.4,1.8C67.5,64.2,68.1,66,66.5,69L66.5,69z M36.9,68.8h29.6c1.1-2.3,1.1-4.2,0.1-5.5
			c-1.3-1.7-4.1-2.2-6.1-1.7c-1.1,0.2-1.7,0.2-2.1-0.1c-0.4-0.4-0.4-1.1-0.3-2.1c0.1-0.8,0.1-1.8-0.1-2.9c-0.2-1.1-1-1.9-2.2-2.1
			c-1.9-0.4-5.1,0.4-8.2,4.1c-3,3.7-3.9,3.2-5.2,2.4c-0.6-0.4-1.4-0.8-2.6-0.8c-0.5,0-1,0.2-1.4,0.7C36.6,62.7,36.8,68,36.9,68.8
			L36.9,68.8z"/>
		<path class="st8" d="M36.1,17.2c0,0-1.7-0.6-2.8,1.8c-1.1,2.4-2.8,5-2.8,5l1,0.2c0,0,0.2-1.7,0.8-1.9l-0.2,2.2
			c0,0,7.2,2.5,10.4-0.2l-0.1-0.8c0,0,0.5,0.1,0.5,0.8l0.4-0.4c0,0-0.4-0.7-1.4-1.7c-0.7-0.6-1-1.8-1-2.6c-0.1-0.6-0.3-1.2-0.7-1.7
			C39.3,17.1,38,16.3,36.1,17.2z"/>
		<path class="st9" d="M34.3,26.6l-1.7-2.2L31.3,20l5-5.3c0,0,1.1-4.1,0.1-3.9S35.2,14,35.2,14l-6.3,4.9c0,0,0.7,6.8,2.5,9.2
			l1.4,4.5L34.3,26.6z"/>
		<path class="st9" d="M39.1,26.6l1.7-2.2l1.3-4.5l-5-5.3c0,0-1.1-4.1-0.1-3.9s1.2,3.3,1.2,3.3l6.3,4.9c0,0-0.7,6.8-2.5,9.2
			l-1.4,4.5L39.1,26.6z"/>
		<circle class="st9" cx="36.7" cy="21.9" r="2.8"/>
		<path class="st9" d="M35.4,23.5c0,0,0.1,2.3-0.5,3c-0.7,0.8-1.3,4.7,1.8,4.8c3.2,0.1,2.8-3.3,2.8-3.3l-0.7-1.8c0,0-1-1.4-0.7-2.7
			H35.4z"/>
		<path class="st10" d="M32.4,48.8l2.3,0.7c0,0,1.9-1.1,1.9-0.1c0,1.1-0.7,2.5-0.4,3.5c0.2,1,0.7,3.4,0,3.4c-0.7,0-2-4.2-2-4.2
			l-2.2-1.2L32.4,48.8z"/>
		<path class="st10" d="M35.4,64l-0.9,3.4c0,0-0.8,1,0,1.4c0.4,0.2,0.6,0.6,0.8,1c0.3,0.7,1,1.2,1.8,1.1c0.4,0,0.7-0.2,0.8-0.6
			c0-0.2,0-0.5-0.2-0.7c-0.8-1.1-1-1.8-1-1.8l0.3-3.8L35.4,64z"/>
		<path class="st8" d="M33.3,22.4c0,0,1-1.3,1.8-1.6s1-1.4,1-1.4s2.2,2.4,3.5,2.5c1.3,0.1,0.1-2.9,0.1-2.9l-2.4-0.6L35,18.7
			l-1.8,1.2L33.3,22.4z"/>
		<path class="st8" d="M31.5,40.5L31,41.4c0,0-10.5,3.4-9.7,6.5c0.9,3.2,5.8,2.3,5.8,2.3l5.4,1l0.5-2.4l-3.8-1l6.5-2.4L36,56.5
			l-0.9,7.9l2.2,0.2c0,0,2.4-7.3,2.1-10.3c0,0,4-12.4,1.7-14.2C38.9,38.2,31.5,40.5,31.5,40.5z"/>
		<path class="st6" d="M36.8,28l-1.7-2L32,22h-3c0,0,1,3.7,2,5.7c1,2,0.9,1.8,0.9,1.8s-0.1,2.6,1.1,4.6c0,0,0.2,1.3-0.1,1.6
			s-0.4,2.4-0.4,2.4L31,40.8c0,0,8,1.4,10.4-0.5c0,0-1.3-4.6-0.5-6s-0.9-1.2,0.1-3.2c1.5-3,2.9-6.9,2.9-8.1c0.1-1.4-2.2-1.8-2.2-1.8
			L39,27L36.8,28z"/>
		<polygon class="st6" points="43.1,11.8 42.1,11.8 42.1,10.8 42,10.8 42,11.8 41,11.8 41,11.9 42,11.9 42,12.9 42.1,12.9 
			42.1,11.9 43.1,11.9 		"/>
		<polygon class="st6" points="33.2,9.6 32.2,9.6 32.2,8.6 32.1,8.6 32.1,9.6 31.1,9.6 31.1,9.7 32.1,9.7 32.1,10.8 32.2,10.8 
			32.2,9.7 33.2,9.7 		"/>
		<polygon class="st6" points="38,5 37,5 37,3.9 36.9,3.9 36.9,5 35.8,5 35.8,5.1 36.9,5.1 36.9,6.1 37,6.1 37,5.1 38,5.1 		"/>
	</g>
</g>
<rect class="st11" width="70.7" height="70.7"/>
</svg>
