<?xml version="1.0" encoding="utf-8"?>
<!-- Generator: Adobe Illustrator 23.1.1, SVG Export Plug-In . SVG Version: 6.00 Build 0)  -->
<svg version="1.1" id="Layer_1" xmlns="http://www.w3.org/2000/svg" xmlns:xlink="http://www.w3.org/1999/xlink" x="0px" y="0px"
	 viewBox="0 0 70.9 70.9" style="enable-background:new 0 0 70.9 70.9;" xml:space="preserve">
<style type="text/css">
	.st0{fill:#FFFFFF;}
	.st1{fill:#403D56;}
	.st2{fill:#5BB996;}
	.st3{fill:#9CD2C6;}
	.st4{fill:#EB6484;}
	.st5{fill:#CCCBCB;}
	.st6{fill:#F1F1F1;}
	.st7{opacity:0.1;enable-background:new    ;}
</style>
<rect class="st0" width="70.9" height="70.9"/>
<g>
	<path class="st1" d="M3.1,68.2c0.9,1.7,2.8,2.4,2.8,2.4s0.5-2-0.5-3.7c-0.9-1.7-2.8-2.4-2.8-2.4S2.1,66.6,3.1,68.2z"/>
	<path class="st2" d="M3.7,67.7c1.6,1,2.3,3,2.3,3S3.9,71,2.3,70c-1.6-1-2.3-3-2.3-3S2,66.7,3.7,67.7z"/>
	<g>
		<path class="st3" d="M56.8,40.2c0,13.5-8,18.2-17.9,18.2S21,53.7,21,40.2S38.9,9.5,38.9,9.5S56.8,26.7,56.8,40.2z"/>
		<polygon class="st1" points="38.2,56.4 38.4,45.1 46.1,31.1 38.5,43.3 38.5,38.2 43.8,28.1 38.6,36.9 38.6,36.9 38.7,27.7 
			44.3,19.7 38.7,26.3 38.8,9.5 38.2,31.7 38.3,30.8 32.5,22 38.2,32.6 37.7,42.8 37.6,42.5 31,33.3 37.6,43.5 37.6,44.7 37.5,44.8 
			37.5,44.9 36.2,70.8 38,70.8 38.2,57.4 44.8,47.2 		"/>
	</g>
	<circle class="st4" cx="10.9" cy="44.2" r="6.9"/>
	<polygon class="st1" points="6.2,57.1 5.2,55.4 14.6,47.4 38.7,47.4 38.7,49.7 30,59.1 19.9,61.1 	"/>
	<polygon class="st5" points="42.9,52.1 42.9,46.8 39.7,46.8 39.7,48.5 38.7,47.4 30.7,55.4 29.3,56.8 27.7,63.5 30.7,70.9 
		46.1,70.9 46.1,55.8 	"/>
	<rect x="5.2" y="55.4" class="st6" width="25.5" height="15.4"/>
	<rect x="21.8" y="60.3" class="st1" width="5.4" height="4.7"/>
	<rect x="14.9" y="60.1" class="st5" width="4.7" height="10.7"/>
	<polygon class="st1" points="9.5,61.8 9.5,60.1 7.5,60.1 7.5,61.8 9.4,61.8 	"/>
	<polygon class="st1" points="9.4,63.1 7.5,63.1 7.5,64.8 9.5,64.8 9.5,63.1 	"/>
	<rect x="10.9" y="60.1" class="st1" width="2" height="1.7"/>
	<rect x="10.9" y="63.1" class="st1" width="2" height="1.7"/>
	<polygon class="st1" points="37.9,62 37.9,60.3 35.9,60.3 35.9,62 37.7,62 	"/>
	<polygon class="st1" points="37.7,63.3 35.9,63.3 35.9,65 37.9,65 37.9,63.3 	"/>
	<rect x="39.2" y="60.3" class="st1" width="2" height="1.7"/>
	<rect x="39.2" y="63.3" class="st1" width="2" height="1.7"/>
	<rect x="48.5" y="60.9" class="st1" width="0.3" height="10"/>
	<path class="st2" d="M51.1,62.2c0,3.5-2.4,6.3-2.4,6.3s-2.5-2.8-2.5-6.3c0-3.5,2.4-6.3,2.4-6.3S51.1,58.7,51.1,62.2z"/>
	<rect x="59.8" y="60.6" class="st1" width="0.3" height="10"/>
	<path class="st2" d="M62.4,61.9c0,3.5-2.4,6.3-2.4,6.3s-2.5-2.8-2.5-6.3c0-3.5,2.4-6.3,2.4-6.3S62.4,58.4,62.4,61.9z"/>
	<path class="st7" d="M62.4,61.9c0,3.5-2.4,6.3-2.4,6.3s-2.5-2.8-2.5-6.3c0-3.5,2.4-6.3,2.4-6.3S62.4,58.4,62.4,61.9z"/>
	<rect x="56.5" y="60.6" class="st1" width="0.3" height="10"/>
	<path class="st2" d="M59.1,61.9c0,3.5-2.4,6.3-2.4,6.3s-2.5-2.8-2.5-6.3s2.4-6.3,2.4-6.3S59.1,58.4,59.1,61.9z"/>
</g>
</svg>
