<?xml version="1.0" encoding="utf-8"?>
<!-- Generator: Adobe Illustrator 23.1.1, SVG Export Plug-In . SVG Version: 6.00 Build 0)  -->
<svg version="1.1" id="Layer_1" xmlns="http://www.w3.org/2000/svg" xmlns:xlink="http://www.w3.org/1999/xlink" x="0px" y="0px"
	 viewBox="0 0 70.9 70.9" style="enable-background:new 0 0 70.9 70.9;" xml:space="preserve">
<style type="text/css">
	.st0{fill:#FFFFFF;}
	.st1{fill:#403D56;}
	.st2{fill:#575DA5;}
	.st3{fill:#A0616A;}
	.st4{opacity:0.1;enable-background:new    ;}
	.st5{fill:#2F2F41;}
	.st6{fill:#F1F1F1;}
</style>
<rect class="st0" width="70.9" height="70.9"/>
<g>
	<g>
		<title>skateboard</title>
		<g>
			<path class="st1" d="M10.5,66c1.5,2.8,4.7,4,4.7,4s0.8-3.3-0.8-6.1c-1.5-2.8-4.7-4-4.7-4S9,63.2,10.5,66z"/>
			<path class="st2" d="M11.5,65c2.7,1.6,3.8,4.9,3.8,4.9s-3.4,0.6-6.1-1C6.5,67.2,5.4,64,5.4,64S8.8,63.4,11.5,65z"/>
			<path class="st3" d="M57.4,11.8l5-1c0,0,1.2-4.1,2.7-3.6s-1,4.6-1,4.6L57.1,15L57.4,11.8z"/>
			<path class="st3" d="M27.1,15.9L25,18.7c0,0-3.2-0.1-2.2,1.6c1,1.7,3.2,0.7,3.3,0.4s3.6-3.5,3.6-3.5L27.1,15.9z"/>
			<path class="st2" d="M36.1,12.7l1.8-1c0,0,7.8-0.6,10.7,1.3c2.9,1.9-12.3,2.2-12.3,2.2L36.1,12.7z"/>
			<path class="st1" d="M39.5,11c0,0-1-2.3,0.4-2.5c0.8-0.1,1.5-0.1,2.3,0l-1.5,1.2L39.5,11z"/>
			<path class="st4" d="M39.5,11c0,0-1-2.3,0.4-2.5c0.8-0.1,1.5-0.1,2.3,0l-1.5,1.2L39.5,11z"/>
			<path class="st5" d="M32.8,24.9l-3.5-0.2l0.6,1.1c0,0-4.9,1.5-3.3,5.6c1.6,4.1,4,8,4,8l1.6,3c0,0,3.3,0.5,3.4-0.5s0-1.5-0.6-1.9
				s-1-1.5-1-1.9s0.1-1-0.2-1.2s-0.5-0.6-0.5-1.3S32,32.1,32,32.1s4.2-0.1,5.6,1c1.3,1.1,5.7,5.2,5.7,5.2c0.2,0.3,0.4,0.5,0.6,0.8
				c0.2,0.5,0.2,0.7,0.7,1s0.1,1.2,0,1.3s-1.3,5-1.3,5s-1.3,2.3,0.1,2.4c1.5,0.1,2.8,0.2,2.9,0c0.1-0.3,0.3-0.7,0.5-1
				c0.4-0.6,0-1.9,0-1.9s3.5-4.5,2.4-7.3c-1.1-2.8-3.4-9.1-3.4-9.1l-3.5-1.5l-6.4-2.3L32.8,24.9z"/>
			<path class="st5" d="M32.6,41.8c0,0-0.7,2.8-1,2.9s-2.9,2.4-1.1,2.8c1.8,0.4,3.2,0.2,3.5-0.1s0.2-0.7,0.8-0.8s1.7-0.5,1.6-1.3
				c-0.1-0.8-0.7-3.2-1.1-3.4S32.6,41.8,32.6,41.8z"/>
			<path class="st5" d="M43.2,48c0,0-1.1,0.8-0.5,2.4c0.6,1.6,1.5,3.3,1.5,3.3s1,3,2.5,2.5c0.6-0.2,1-0.7,1.1-1.3
				c0.2-0.9,0.1-1.8-0.4-2.5L46.4,51l-1-2.5L43.2,48z"/>
			<path class="st3" d="M40.1,12.3c0,0-1.5-0.1-1.7,0.2s-1.3,5.2,0,5.7s5.3,1.3,5.9,0.7s0.8-5.9,0.8-5.9L40.1,12.3z"/>
			<path class="st4" d="M40.1,12.3c0,0-1.5-0.1-1.7,0.2s-1.3,5.2,0,5.7s5.3,1.3,5.9,0.7s0.8-5.9,0.8-5.9L40.1,12.3z"/>
			<path class="st6" d="M37.9,16.3c0,0,1.7,1.7,2.8,1.5s3.6-1.3,3.9-1.8s3.3-0.6,3.3-0.6l-3.3,9.1l2.3,7.6c0,0,1.3-1.6-2.3-1.7
				c-3.6-0.1-8.5-1.9-9.3-4.4c0,0-5.3-0.7-5.6-0.8s0.6-0.8,0.6-0.8l3.5-1l2.5-3.3L37.9,16.3z"/>
			<path class="st2" d="M39,12.5c0,0,0.6-0.8,0-0.8s-2.3,0-2.9,0.1c-0.6,0.1-2.9-0.5-3.2,0.2c-0.2,0.7-0.2,5.2,0.2,5.6
				s0.7,0.4,0.1,1.1s-2.1,3.2-1.7,4c0.4,0.8-3.9,1.1-3.3,2.1c0.3,0.6,0.9,0.9,1.6,1c0,0,0.2-1.9,1.7-1c1.5,1,3.4,3.4,5,1.8
				c1.6-1.6,2.2-3,2.3-5.1s0-3.4-0.2-4.6S39,12.5,39,12.5z"/>
			<path class="st2" d="M45.3,14.8c0,0,1,0.8,0,2.9s-3.5,6.9-1.5,10.1c2.1,3.2,2.9,4,2.4,4.6c-0.3,0.4-0.5,0.9-0.5,1.3l1.3-0.5
				c0,0,0.2-1.7,0.7-2.9c0.5-1.2-1-4.9-1-4.9l0.5-4.7c0,0,1.9-3,2.2-3.2c0.2-0.1-0.5-5.3-0.5-5.3s-1.2-0.4-1.8,0
				C46.7,12.7,45.3,14.8,45.3,14.8z"/>
			<path class="st2" d="M33.7,12.2H33l-5,2.5c0,0-0.4-1.6-0.6-1.2c-0.2,0.4-0.1,1.3-0.7,1.6c-0.6,0.2-1,0.6,0,1.1
				c1,0.5,1.1,0.1,1.1,1c0,0.8,0.7,1,1.3,0.7s0.7-0.4,1.3-0.1c0.6,0.2,0.2,0.6,1.1,0.2s3-0.2,3-0.2L33.7,12.2z"/>
			<path class="st2" d="M48.3,12.5l0.8-0.2c0,0,2.5,0.2,3.2,0.2s1.2-0.1,1.6-0.1s2.2-0.2,2.4-0.5c0.2-0.2,1.3-0.8,1.5-0.5
				s1.5,2.7,0.2,3.8s-1.5,0.6-2.2,1.1c-0.7,0.5-6.6,1.5-6.7,1.3S48.3,12.5,48.3,12.5z"/>
			<circle class="st3" cx="43.3" cy="13.5" r="3.6"/>
			<path class="st5" d="M40.6,13.6c0,0.1,0.1,0.2,0.1,0.3c0.1,0.4,0.5,0.7,0.9,0.7c-0.1,0.3,0.1,0.6,0.4,0.7c0,0,0,0,0.1,0
				c0.2-0.3,0.4-0.7,0.5-1.1c0-0.2,0.1-0.3,0.2-0.4c0.1-0.1,0.3-0.2,0.5-0.2c1-0.1,1.9-0.2,2.9-0.2c0.1,0,0.3,0,0.4-0.1
				c0.3-0.2,0.2-0.6,0-0.9c-0.3-0.5-0.9-0.9-1.5-1.1c-0.4-0.1-0.9-0.2-1.4-0.2c-0.6-0.1-1.2-0.2-1.8-0.2c-0.6,0-1.2,0.1-1.7,0.5
				c-0.4,0.3-1,1-0.7,1.4c0,0.1,0.2,0.1,0.3,0.2c0.1,0.1,0.1,0.3,0.2,0.3C40.2,13.5,40.5,13.5,40.6,13.6z"/>
			<path class="st1" d="M43.3,7.4c0,0-4.1,1.5-3.8,3.5s1.5,4.5,3.8,4.4c2.3-0.1,3.5-2.6,3.5-2.6l-0.6-3.4
				C46.2,9.3,43.9,7.4,43.3,7.4z"/>
			<path class="st5" d="M42.8,14.7c0,0,1.6-1.8,2.4-0.7C45.2,14,45.2,13.9,42.8,14.7z"/>
			<path class="st5" d="M45.8,59.7c-2.2,0-4.9-0.7-7.5-3.3c-6.4-6.4-12.5-7-12.6-7l0-0.2c0.1,0,6.2,0.7,12.7,7.1
				c3.3,3.3,6.8,3.5,9.1,3.1c1.5-0.3,3-0.9,4.2-1.7l0.1,0.2c-1.3,0.9-2.8,1.5-4.3,1.8C47,59.7,46.4,59.7,45.8,59.7z"/>
			<circle class="st5" cx="29" cy="53" r="1.5"/>
			<circle class="st5" cx="39.3" cy="59.8" r="1.5"/>
			<path class="st1" d="M65.7,70.8c-3-0.5-5.8-0.9-8.5-1.2l1-2.1c-0.4-0.1-1.9,1.1-1.9,1.1l1.3-6.1C55.9,62.8,55,69,55,69L52.9,67
				l1,2.3c-8.3-0.9-15.5-1.1-21.6-1.1l0.9-1.8c-0.4-0.1-1.9,1.1-1.9,1.1l1.3-6.1c-1.8,0.2-2.7,6.4-2.7,6.4l-2.1-2.1l1.1,2.5
				c-4.1,0.1-8.3,0.5-12.4,1c0.9-2.8,4-5.5,4-5.5c-2.4,0.7-3.7,2-4.3,3.1C16.2,61.2,17.1,55.5,19,50c0,0-4.9,10.9-4.1,18.2l0.1,1.3
				c-4.2,0.7-6.3,1.3-6.3,1.3H65.7z"/>
		</g>
	</g>
</g>
</svg>
