<?xml version="1.0" encoding="utf-8"?>
<!-- Generator: Adobe Illustrator 23.1.1, SVG Export Plug-In . SVG Version: 6.00 Build 0)  -->
<svg version="1.1" id="Layer_1" xmlns="http://www.w3.org/2000/svg" xmlns:xlink="http://www.w3.org/1999/xlink" x="0px" y="0px"
	 viewBox="0 0 70.9 70.9" style="enable-background:new 0 0 70.9 70.9;" xml:space="preserve">
<style type="text/css">
	.st0{fill:#FFFFFF;}
	.st1{fill:#F1F1F1;}
	.st2{fill:#EB634C;}
	.st3{opacity:0.1;enable-background:new    ;}
	.st4{fill:#2F2F41;}
	.st5{fill:#403D56;}
	.st6{fill:#EB6484;}
</style>
<rect y="0" class="st0" width="70.9" height="70.9"/>
<path class="st1" d="M0.1,26.5l-0.3,33.8l9.7,10.5L35,46.6L14.3,24.7c-3.3,3.4-8.7,3.5-12.1,0.2c-0.2-0.2-0.3-0.3-0.5-0.5"/>
<path class="st1" d="M8.1,25.5c2,0,4-0.8,5.4-2.3l-5.3-5.6L2.5,23C3.9,24.6,6,25.5,8.1,25.5z"/>
<path class="st2" d="M49.9,33.7c0,7.4-6,13.4-13.4,13.4c0,0,0,0,0,0c-0.1,0-0.2,0-0.2,0c-0.3,0-0.6,0-1,0
	c-7.4-0.7-12.8-7.2-12.2-14.5c0.7-7.4,7.2-12.8,14.5-12.2C44.6,21,49.9,26.8,49.9,33.7L49.9,33.7z"/>
<path class="st3" d="M44.3,28.9c0.8-1.5,1.4-3.1,1.6-4.8c-5.3-5.1-13.8-5-19,0.3c-2,2.1-3.3,4.7-3.6,7.5c2.2,2.1,5.1,3.4,8.1,3.7
	c0.3,0,0.6,0,1,0c0.1,0,0.2,0,0.2,0C37.4,35.7,41.9,33.1,44.3,28.9z"/>
<rect x="20.9" y="46.8" class="st4" width="21.5" height="24.1"/>
<path class="st3" d="M49.3,38.7c-1.7,4-5.2,6.9-9.4,7.8h3v24.1H23.1l11.1-19.3l2.6-4.4l0.2-0.3l8.5-14.6L49.3,38.7z"/>
<polyline class="st5" points="70.6,70.9 48.2,70.9 25.8,70.9 37,51.5 48.2,32.1 59.4,51.5 70.6,70.9 "/>
<circle class="st6" cx="40.5" cy="11.7" r="4.4"/>
<path class="st1" d="M40.5,14.7c0,3.3-2,4.5-4.4,4.5s-4.4-1.2-4.4-4.5s4.4-7.6,4.4-7.6S40.5,11.4,40.5,14.7z"/>
<polygon class="st5" points="35.9,18.7 35.9,15.9 37.8,12.4 36,15.5 36,14.2 37.3,11.7 36,13.9 36,13.9 36,11.6 37.4,9.6 36,11.3 
	36,7.1 35.9,12.6 35.9,12.4 34.5,10.2 35.9,12.8 35.8,15.3 35.8,15.3 34.1,13 35.7,15.5 35.7,15.8 35.7,15.8 35.7,15.8 35.4,22.2 
	35.8,22.2 35.9,18.9 37.5,16.4 "/>
<path class="st1" d="M51.1,19.7c-1.1,3.2-3.3,3.6-5.6,2.9s-3.8-2.5-2.8-5.7s6.6-5.8,6.6-5.8S52.2,16.5,51.1,19.7z"/>
<polygon class="st5" points="45.5,22 46.5,19.4 49.3,16.7 46.6,19 47,17.8 49,15.8 47.1,17.5 47.1,17.5 47.9,15.3 49.8,13.9 48,15 
	49.3,11.1 47.5,16.2 47.5,16 46.9,13.5 47.4,16.4 46.5,18.8 46.5,18.7 45.7,16 46.4,18.9 46.3,19.2 46.3,19.2 46.3,19.3 43.9,25.2 
	44.3,25.3 45.4,22.2 47.8,20.4 "/>
<path class="st1" d="M29.2,17.1c1.2,3.1-0.2,4.9-2.5,5.8s-4.5,0.5-5.7-2.6c-1.2-3.1,1.4-8.7,1.4-8.7S28,14,29.2,17.1z"/>
<polygon class="st5" points="26.3,22.5 25.4,19.9 25.9,16 25.2,19.5 24.8,18.3 25.1,15.5 24.7,18 24.7,18 23.9,15.9 24.5,13.5 
	23.8,15.5 22.3,11.7 24.2,16.8 24.1,16.6 22,15.1 24.2,17 25,19.4 25,19.4 22.6,17.8 25.1,19.6 25.2,19.9 25.2,19.9 25.2,19.9 
	27.1,26 27.6,25.8 26.4,22.7 27,19.8 "/>
<path class="st2" d="M19.8,43.5c-0.3,0.4-0.6,0.4-1,0.2c-0.3-0.2-0.5-0.5-0.2-1c0.3-0.4,1.2-0.6,1.2-0.6S20.1,43.1,19.8,43.5z"/>
<path class="st2" d="M52.5,30.4c0.1,0.5-0.2,0.7-0.6,0.8c-0.4,0-0.7-0.1-0.8-0.6s0.6-1.2,0.6-1.2S52.4,29.9,52.5,30.4z"/>
<path class="st2" d="M18.3,34.2c-0.3,0.4-0.6,0.4-1,0.2c-0.3-0.2-0.5-0.5-0.2-1c0.3-0.4,1.2-0.6,1.2-0.6S18.6,33.8,18.3,34.2z"/>
</svg>
