<?xml version="1.0" encoding="utf-8"?>
<!-- Generator: Adobe Illustrator 23.1.1, SVG Export Plug-In . SVG Version: 6.00 Build 0)  -->
<svg version="1.1" id="Layer_1" xmlns="http://www.w3.org/2000/svg" xmlns:xlink="http://www.w3.org/1999/xlink" x="0px" y="0px"
	 viewBox="0 0 70.9 70.9" style="enable-background:new 0 0 70.9 70.9;" xml:space="preserve">
<style type="text/css">
	.st0{fill:#FFFFFF;}
	.st1{fill:#F1F1F1;}
	.st2{fill:#2F2F41;}
	.st3{fill:#F5B5B7;}
	.st4{opacity:0.2;enable-background:new    ;}
	.st5{fill:#403D56;}
	.st6{fill:#FBBF0D;}
	.st7{fill:#A0616A;}
	.st8{fill:#CECCDF;}
	.st9{opacity:0.1;enable-background:new    ;}
</style>
<rect class="st0" width="70.9" height="70.9"/>
<rect class="st0" width="70.9" height="70.9"/>
<polygon class="st1" points="63.5,38.2 62.3,43.6 61.3,48.1 60.5,51.6 59.5,56.1 56.3,70.6 16.3,52.1 13.3,50.7 9.6,49 6.7,47.7 
	3.1,46 5.1,43.1 6.8,40.7 8.9,37.6 10.6,35.2 29.4,7.9 49.2,25.5 52.8,28.6 55.6,31.1 59.1,34.3 "/>
<path class="st2" d="M5.3,54.3c-2.7-1.5-4.3-3.5-4.9-6.1c-0.5-1.9-0.3-4,0.4-6.3c0.5-1.7,1.3-3.3,2.3-4.7C8.5,29.6,9,24.6,8.5,21.7
	c-0.6-3.1-2.5-4.4-2.6-4.4L6,17.2c0,0,2,1.3,2.6,4.5c0.4,1.8,0.2,3.9-0.5,6.2c-0.8,2.8-2.5,6-4.9,9.4c-1,1.4-1.8,3-2.3,4.7
	c-1.2,3.7-1.3,8.9,4.5,12.1L5.3,54.3z"/>
<path class="st2" d="M6.6,54.3c2.7-1.5,4.3-3.5,4.9-6.1c0.5-1.9,0.3-4-0.4-6.3c-0.5-1.7-1.3-3.3-2.3-4.7C3.4,29.6,3,24.6,3.5,21.7
	c0.6-3.1,2.5-4.4,2.6-4.4L6,17.2c0,0-2,1.3-2.6,4.5c-0.4,1.8-0.2,3.9,0.5,6.2c0.8,2.8,2.5,6,4.9,9.4c1,1.4,1.8,3,2.3,4.7
	c1.2,3.7,1.3,8.9-4.5,12.1L6.6,54.3z"/>
<path class="st2" d="M64.9,47.8c-2.7-1.5-4.3-3.5-4.9-6.1c-0.5-1.9-0.3-4,0.4-6.3c0.5-1.7,1.3-3.3,2.3-4.7
	c5.4-7.7,5.9-12.7,5.4-15.5c-0.6-3.1-2.5-4.4-2.6-4.4l0.1-0.1c0,0,2,1.3,2.6,4.5c0.4,1.8,0.2,3.9-0.5,6.2c-0.8,2.8-2.5,6-4.9,9.4
	c-1,1.4-1.8,3-2.3,4.7c-1.2,3.7-1.3,8.9,4.5,12.1L64.9,47.8z"/>
<path class="st2" d="M66.2,47.8c2.7-1.5,4.3-3.5,4.9-6.1c0.5-1.9,0.3-4-0.4-6.3c-0.5-1.7-1.3-3.3-2.3-4.7
	c-5.4-7.7-5.9-12.7-5.4-15.5c0.6-3.1,2.5-4.4,2.6-4.4l-0.1-0.1c0,0-2,1.3-2.6,4.5c-0.4,1.8-0.2,3.9,0.5,6.2c0.8,2.8,2.5,6,4.9,9.4
	c1,1.4,1.8,3,2.3,4.7c1.2,3.7,1.3,8.9-4.5,12.1L66.2,47.8z"/>
<path class="st2" d="M25.6,30.9c-2-3.4-6-3.6-6-3.6s-3.9-0.5-6.4,4.7c-2.3,4.8-5.5,9.5-0.5,10.6l0.9-2.8l0.6,3
	c0.7,0.1,1.4,0.1,2.1,0c5.4-0.2,10.5,0.1,10.3-1.9C26.4,38.4,27.5,34.2,25.6,30.9z"/>
<path class="st3" d="M17.3,38c0.7,1.5,1.1,3.4,1.4,5.4l5.6-0.3c-1.3-1.8-1.7-3.9-1.2-6.3L17.3,38z"/>
<path class="st4" d="M17.3,38c0.7,1.5,1.1,3.4,1.4,5.4l5.6-0.3c-1.3-1.8-1.7-3.9-1.2-6.3L17.3,38z"/>
<polygon class="st2" points="26.9,62.9 26.9,65 26.8,69.5 26.8,69.5 26.7,70.9 8.3,70.9 9.1,66.7 9.1,66.7 9.7,63 10,61.3 10,61.3 
	25.2,59.2 "/>
<path class="st5" d="M26.7,62.7l0,2.1c-5.3-0.1-13.6-1.4-17.1-2l0.3-1.7L24.9,59L26.7,62.7z"/>
<circle class="st3" cx="20" cy="35.1" r="4.3"/>
<path class="st6" d="M28.3,65c0,0,0.5,4.7-2.6,4.3l-0.5-4.7l-2.8-2.8l-7.8-0.2l-5.7,5.4c0,0-0.2-5.6,0.5-6.1
	c0.7-0.5,2.3-1.7,2.3-1.7v-0.9L7,48.9c0,0,2.8-5.7,5-5.9l3-0.2c0,0,1-0.5,1-0.7s-0.2-1.6,0.7-1.2c0,0,0.1-1.8,1-1.2
	c0,0,2.9,2.3,5.8,0.1c0,0,1.4-0.3,1.2,0.4s0,1.2,0.3,1.2c0.3,0,1.9,0.5,1.9,0.9c0,0.1,0.1,0.8,0.3,1.9v0c0.6,3.9,2.1,12.7,2.1,12.7
	S30.9,59.1,28.3,65z"/>
<path class="st6" d="M-0.1,66l13-7.6L8.2,48L7,48.9l-7.1,9"/>
<path class="st5" d="M27.2,44.1L27.2,44.1c-0.2,1.4-7.8,1.1-8.8,1.1c-1,0-1.9-0.2-3-0.9c-1-0.7-0.5-1.6-0.5-1.6s0.9-0.7,0.9-0.8
	s-0.2-1.6,0.7-1.2c0,0,0.1-1.8,1-1.2c0,0,3,2.4,6,0.3c0,0,1.4-0.3,1.2,0.4c-0.2,0.7,0,1.2,0.3,1.2c0.3,0,1.9,0.5,1.9,0.9
	C26.9,42.3,27.1,43,27.2,44.1z"/>
<path class="st3" d="M26.3,37.6c0,0-1.4-3-2.8-1.6c-1.4,1.4,1.6,3.5,1.6,3.5L26.3,37.6z"/>
<path class="st6" d="M26.3,37c0,0-2.1,2.7-2.8,2.9c0,0,1.9,7.7,4.4,9.8l1.4,7.1c0,0,5.9-2.4,4.5-6.4c0,0,0-0.1,0-0.1
	c-1.2-3.3-2.8-6.5-4.8-9.4L26.3,37z"/>
<polygon class="st4" points="25.2,45 29.5,56.8 27.9,49.6 "/>
<polygon class="st2" points="24.7,30.6 20.7,28.5 15.3,29.3 14.2,34.3 17,34.2 17.8,32.4 17.8,34.2 19.1,34.1 19.8,31.2 20.3,34.3 
	24.9,34.2 "/>
<path class="st7" d="M61.8,57.3l2.2,8c0,0-0.5,7,1.7,5.7c2.2-1.4,1.4-7.3,1.4-7.3l-1.3-7.1L61.8,57.3z"/>
<path class="st8" d="M63,35l1.8,1.8v8.8c0,0,1.1,1.6,0.9,2.1c-0.2,0.4-0.4,0.4-0.2,0.8c0.2,0.3,0.4,0.5,0.2,0.8s-0.2,0.8,0,1
	c0.2,0.2,0.6,0.5,0.3,0.9c-0.3,0.3-0.8,0.1-0.3,1.3c0.4,1.2,1.2,1.5,1,1.9c-0.2,0.4-0.2,1.5-0.2,1.5l-4.7,0.6l-1-12.2L63,35z"/>
<polygon class="st5" points="66.6,55.7 61.2,55.9 61.4,58.2 66.2,57.3 "/>
<polygon class="st7" points="51.8,23.7 51.1,30.2 57.7,31.2 58.2,27.4 58.7,23.7 "/>
<polygon class="st9" points="51.8,23.6 51.1,30.1 57.7,31.1 58.2,27.4 58.7,23.6 "/>
<path class="st7" d="M37.4,54.6l3.7,7.9c0,0,0.6,3.7,1.6,3.8c1,0.1,1.9-3.8,1.9-3.8l-1.3-2.1l-1.5-5.8L37.4,54.6z"/>
<path class="st2" d="M62.6,70.7H41.8c0.2-2.6,0.3-4.2,0.3-4.2l0.3-0.4l1.3-2.1l1-1.5l0.3-0.5l0.1-0.2l1.3-0.2L59.9,59
	c0.2,1,0.5,2,0.9,2.9c0.1,0.2,0.2,0.4,0.3,0.6c0.3,0.7,0.8,1.3,1.2,1.8c0.1,0.1,0.2,0.4,0.2,0.8C62.8,66.2,62.8,68.2,62.6,70.7z"/>
<circle class="st7" cx="55.4" cy="20.6" r="5.2"/>
<path class="st8" d="M43.8,31.2L43,30.8c0,0-3.4,2.3-4.4,7.4c-1.1,5.1-1.8,6.4-1.8,6.4s-1.1,0.2-0.3,1s0.8,0.6,0.1,1.1
	c-0.6,0.4-1.1-0.4-0.6,0.4c0.4,0.9,1,0.6,0.5,1.2c-0.4,0.5-1.2,0.5-0.8,1c0.4,0.4-0.4,1.4,0.1,1.8c0.5,0.4,0.8,0.5,0.8,1.3
	c0,0.4,0.1,0.9,0.2,1.3h5.6c0,0-1.1-2.1-0.8-2.5c0.3-0.4,0.4-0.9,0.2-1.1c-0.2-0.2-0.9,0.2-0.2-0.3c0.6-0.5,0.9-0.2,0.6-0.9
	c-0.2-0.6-0.6-0.3-0.2-0.6c0.4-0.3,0.8-0.2,0.5-0.5s-0.6-0.3-0.2-0.5c0.4-0.2,0.8,0,0.6-0.5c-0.1-0.5-0.2-0.3,0-0.5
	c0.2-0.2,2.5-7.6,2.5-7.8S43.8,31.2,43.8,31.2z"/>
<polygon class="st5" points="42.7,53.2 35.9,53.6 37.6,55.2 42.4,55.4 "/>
<path class="st5" d="M44.7,61.3l-1.4,2.6c0,0,4.2,0.5,5.7,1.1c1.5,0.5,5.4,1.3,5.4,1.3l1-3.8L44.7,61.3z"/>
<polygon class="st5" points="57,62.5 58.2,66.1 63,65.1 62.4,61.7 "/>
<path class="st8" d="M59,27.5c0,0-0.3-0.2-1.1,0.2s-3.2,0.6-4.4-0.6c-1.2-1.3-2.1-2.4-2.4-2.2c-0.3,0.2-0.5,2.7-0.5,2.7l-1.1,0.9
	L43,30.8l0.5,14.6l1,3.4c0,0-0.8,2.6,0.2,4.1s-0.5,2.1-0.5,2.1s-0.3,0.4-0.1,1.5s-0.2,5.1-0.2,5.1s9.2,4.1,18.8,0.5l-1.1-4.1
	l-0.5-9.2c0,0,0.5-1.5,0.4-2.2s3.2-9.7,3.2-9.7s-0.5-4.5-3.4-5.5c-2.8-1-3.2-1.9-3.2-1.9S59.5,28,59,27.5z"/>
<path class="st2" d="M50.2,21.3c0,0-0.5-0.8-0.3-1.7c0.1-0.5,0.2-1,0.1-1.5c0,0,0.4-1.4,0.9-2.2c0.4-0.8,0.2-1.1,1.6-1.4
	s0.8-2,4.4-0.1c0.2,0.3,0.7,0.5,1.1,0.4c0.7-0.1,1,0.9,1,0.9s0.5-0.3,0.7,0.1s1.5-0.2,1.5,2.6s-1.5,5.3-1.5,5.3s0.1-4.7-2.4-5.2
	s-5.1-1.9-5.8-0.1C50.9,20.2,50.2,21.3,50.2,21.3z"/>
<ellipse class="st7" cx="59.7" cy="21.7" rx="0.5" ry="0.6"/>
</svg>
