<?xml version="1.0" encoding="utf-8"?>
<!-- Generator: Adobe Illustrator 23.1.1, SVG Export Plug-In . SVG Version: 6.00 Build 0)  -->
<svg version="1.1" id="Layer_1" xmlns="http://www.w3.org/2000/svg" xmlns:xlink="http://www.w3.org/1999/xlink" x="0px" y="0px"
	 viewBox="0 0 70.9 70.9" style="enable-background:new 0 0 70.9 70.9;" xml:space="preserve">
<style type="text/css">
	.st0{fill:#FFFFFF;}
	.st1{opacity:0.4;fill:#575DA5;enable-background:new    ;}
	.st2{fill:#403D56;}
	.st3{fill:#575DA5;}
	.st4{fill:#424249;}
	.st5{opacity:0.1;enable-background:new    ;}
	.st6{fill:#2F2F41;}
	.st7{fill:#A0616A;}
	.st8{fill:#575B89;}
	.st9{fill:#F1F1F1;}
	.st10{fill:#57B793;}
</style>
<rect class="st0" width="70.9" height="70.9"/>
<rect class="st0" width="70.9" height="70.9"/>
<circle class="st1" cx="64.9" cy="30.7" r="2.4"/>
<circle class="st1" cx="15.3" cy="16.8" r="3.4"/>
<circle class="st1" cx="9.1" cy="18.4" r="2.4"/>
<path class="st2" d="M65.4,57.5c-1.9,2-1.9,5-1.9,5s2.9-0.3,4.8-2.4c1.9-2,1.9-5,1.9-5S67.3,55.4,65.4,57.5z"/>
<path class="st3" d="M67.9,57.6C67.3,60.3,65,62,65,62s-1.5-2.6-0.9-5.3c0.6-2.7,2.9-4.5,2.9-4.5S68.5,54.9,67.9,57.6z"/>
<polyline class="st4" points="0,37 16,29.7 65.5,29.7 65.5,61.9 54.8,70.7 0,70.7 "/>
<polyline class="st5" points="0,37 16,29.7 65.5,29.7 65.5,29.9 61.6,32.5 54.8,37 0,37 "/>
<polygon class="st5" points="65.5,29.7 65.5,61.9 54.8,70.7 54.8,37 61.6,32.5 65.4,29.7 "/>
<polygon class="st6" points="51,34.2 17.7,34.2 20.1,32.8 52.1,32.8 "/>
<path class="st7" d="M41.3,14.3c0,0-0.9-2.5-1.5-1.7c-0.6,0.8,1,2.1,1,2.1L41.3,14.3z"/>
<path class="st8" d="M45.4,11.9l-0.5,0.2c0,0-0.3,1.1-0.2,1.3c0.1,0.2,0.1,0,0,0.4c-0.1,0.4-0.6,1.4-0.6,1.5c0,0.1-2.8-0.9-2.8-1.5
	c0,0-0.6,0.7-0.9,0.8c0,0,3.2,2.3,3.6,2.6c0.4,0.3,0.7,0.1,1.1-0.2c0.4-0.3,2-3.1,2-3.1L45.4,11.9z"/>
<path class="st6" d="M44,29.1c0,0,0,0.5,0.1,0.6s0.8,1.3,0,1.5s-1.3,0.1-1.5,0.2c-0.2,0.1-3.6,0.3-3.6-0.2s1.6-0.6,1.6-0.6
	s1.5-1,1.8-1.5C42.7,28.5,44,29.1,44,29.1z"/>
<path class="st6" d="M53.8,30.1c0,0,1.2,2,0.9,2.2s-3.1,1.1-3.5,1.2c-0.5,0-0.9-0.4-0.5-0.6c0.4-0.2,1.4-1.3,1.4-1.6v-0.9L53.8,30.1
	z"/>
<path class="st6" d="M54.9,17.1c0,0,1,1.3-0.6,3.3l-2.7,3.4c0,0,1.6,2.6,1.7,4c0,1.4,0.4,1.1,0.5,1.6c0.1,0.6,0.5,0.3,0.2,0.7
	c-0.3,0.4-1.6,0.8-2,0.5c-0.3-0.2-0.4-0.6-0.4-1c0-0.2-0.7-1.3-0.7-1.6c0-0.3-1.8-3.1-1.8-3.1s-0.6-1.6,0.1-2.6
	c0.7-0.9,1.1-2.2,1.1-2.2s-2,2.4-3.4,3c0,0-0.5,0.1-0.4,0.3c0.1,0.2,0,0.4-0.1,0.6c-0.1,0.2-1.2,3.1-1.5,3.8
	c-0.3,0.7-0.2,1.2-0.6,1.4c-0.4,0.2-2.1,0-2.1-0.2c0-0.2,0.2-0.9,0.4-1.2c0.1-0.3,1.3-4.3,1.2-4.9c-0.1-0.7,0-1.6,0.8-2
	s4.4-3.5,4.6-3.5C49.3,17.4,54.9,17.1,54.9,17.1z"/>
<circle class="st7" cx="45.2" cy="7.4" r="2"/>
<path class="st7" d="M46.8,7.6c0,0,0.6,1.1,1.4,1.3c0.8,0.1-2,2.4-2,2.4S45.5,9.1,45,9C44.4,8.9,46.8,7.6,46.8,7.6z"/>
<path class="st8" d="M44.9,12.2c0,0.6,1.9,2.4,1.9,2.4l1.8,1.5c0,0,0,0.5,0.2,0.6s0.4,0,0.2,0.3c-0.2,0.3-0.7,0.9-0.2,1
	c0.1,0,0.3,0,0.4,0c0.1,0,0.3,0,0.4,0c0.4,0,0.8,0,1.3,0c0.1,0,0.3,0,0.4,0c1.8,0,4-0.2,3.8-0.9C54.8,16,55,15.6,54.3,15
	c-0.6-0.6-1.6-2.8-1.6-2.8s-2-3.4-3.7-3.4l-0.4-0.1c-0.3-0.1-0.7,0-0.9,0.3c-0.3,0.5-0.9,1.3-1.2,1.5c-0.5,0.4-0.6,0.1-0.6,0.1
	S44.9,11.6,44.9,12.2z"/>
<path class="st7" d="M49.2,19.5c0,0-1.4,2.2-0.5,2.6c0.9,0.4,1.4-2.3,1.4-2.3L49.2,19.5z"/>
<path class="st6" d="M46.5,7.2c-0.1,0-0.1-0.1-0.1-0.2c-0.1-0.4-0.4-0.8-0.8-0.9c-0.2,0-0.3,0-0.5,0c-0.2,0.1-0.4,0.2-0.6,0.3
	c-0.1,0.1-0.2,0.1-0.3,0.2c-0.1,0-0.4,0.2-0.5,0.2c-0.2,0.1-0.3,0.2-0.5,0.2C43.1,7,43,6.8,43,6.7c-0.1-0.4,0.2-0.9,0.4-1.3
	c0.2-0.2,0.4-0.4,0.7-0.5c0.3-0.1,0.7-0.2,1-0.2c0.5-0.1,0.9-0.1,1.4,0.1c0.4,0.1,0.8,0.5,0.9,0.9c0,0.1,0,0.2,0,0.3
	c0.1,0.2,0.2,0.4,0.3,0.6c0.1,0.3,0.1,0.7,0,1c-0.1,0.2-0.3,0.5-0.3,0.7L47,8.1c-0.1-0.1-0.2-0.2-0.1-0.3l0.1-0.5c0-0.1,0-0.2,0-0.3
	C46.7,6.8,46.7,7.2,46.5,7.2z"/>
<path class="st5" d="M50,16.2l-0.5,1.9c0.5,0,1.1,0,1.7,0c0.2-0.5,0.3-1,0.4-1.5c0.4-1.7-0.3-4.4-0.7-5.7c-0.4-1.3-1.4-1.6-1.4-1.6
	c-0.4,0.1-0.8,0.3-1.1,0.6C48,10.4,50,16.2,50,16.2z"/>
<path class="st5" d="M49.6,16.1l-0.5,2c0.1,0,0.3,0,0.4,0c0.4,0,0.8,0,1.3,0c0.2-0.5,0.3-1.1,0.5-1.6c0.4-1.7-0.3-4.4-0.7-5.7
	c-0.4-1.3-1.2,0.1-1.2,0.1s0.3-0.8-0.3-0.4C48.5,11,49.6,16.1,49.6,16.1z"/>
<path class="st8" d="M49.5,9.3c0,0,1,0.3,1.4,1.6s1.1,3.9,0.7,5.7s-1.4,3.9-1.4,3.9s-0.9-0.7-1.3-0.5l0.9-3.8c0,0-2.1-5.8-1.5-6.2
	C48.7,9.6,49.1,9.4,49.5,9.3z"/>
<polygon class="st9" points="50.2,33.6 36.8,5.6 14.4,16.4 22.7,33.6 "/>
<rect x="19.9" y="19.4" transform="matrix(0.9016 -0.4326 0.4326 0.9016 -5.9693 13.4269)" class="st2" width="13.2" height="0.8"/>
<rect x="23.1" y="26" transform="matrix(0.9016 -0.4326 0.4326 0.9016 -8.4992 15.4359)" class="st2" width="13.2" height="0.8"/>
<rect x="35.2" y="13.3" transform="matrix(0.9016 -0.4326 0.4326 0.9016 -2.8334 17.4083)" class="st2" width="3.3" height="3.3"/>
<rect x="38.4" y="19.9" transform="matrix(0.9016 -0.4326 0.4326 0.9016 -5.3634 19.4173)" class="st2" width="3.3" height="3.3"/>
<polygon class="st10" points="37.8,10.7 36.6,14.2 35,13.6 34.7,14.2 37,15 38.5,10.9 "/>
<polygon class="st10" points="41,17.3 39.7,20.7 38.1,20.1 37.9,20.8 40.2,21.6 41.6,17.5 "/>
</svg>
